<svg width="186" height="64" viewBox="0 0 186 64" fill="none" xmlns="http://www.w3.org/2000/svg">
<rect x="0.5" y="0.5" width="185" height="63" rx="16.5" fill="white" stroke="black"/>
<path d="M50.5759 38.439C50.2189 38.745 49.7599 38.915 49.3009 38.932C48.7909 38.932 48.2469 38.643 47.9069 38.252C47.4309 37.708 47.1589 36.977 46.9889 36.28C46.6999 35.175 46.6489 34.019 46.6999 32.897C46.7509 31.792 46.8869 30.704 47.1249 29.633C47.3119 28.783 47.6179 27.916 48.1449 27.219C48.2809 27.032 48.4849 26.862 48.6889 26.777C49.1819 26.556 51.4259 26.403 51.9699 26.369C52.9899 26.318 54.0609 26.301 55.0299 26.641C55.6249 26.845 56.1859 27.253 56.5599 27.763C57.2569 28.766 56.8659 30.16 55.7099 30.551C55.4039 30.653 55.0809 30.653 54.7749 30.619C54.2649 30.551 53.7549 30.449 53.2449 30.415C52.9389 30.398 52.6329 30.398 52.3439 30.5C52.1739 30.551 52.0039 30.653 51.9019 30.789C51.7149 31.027 51.5959 31.401 51.8849 31.503C51.9869 31.537 52.0889 31.554 52.1909 31.554C52.9389 31.537 53.6699 31.384 54.4009 31.469C54.8769 31.503 55.4039 31.707 55.6759 32.098C56.1009 32.676 56.0499 33.866 55.6079 34.444C55.4379 34.682 55.1489 34.869 54.8599 34.954C54.3499 35.107 53.7889 35.056 53.2619 34.988C52.8709 34.937 52.4629 34.852 52.0719 34.92C51.8849 34.954 51.6979 35.056 51.5789 35.209C51.5959 35.889 51.5619 36.603 51.3409 37.249C51.1879 37.691 50.9329 38.133 50.5759 38.439ZM63.805 39.153C62.904 39.238 61.969 39.102 61.119 38.813C60.116 38.473 59.215 37.691 58.637 36.807C58.399 36.433 58.161 36.042 58.025 35.617C57.668 34.563 57.668 33.407 57.787 32.319C57.923 31.095 58.467 29.888 59.198 28.868C59.708 28.171 60.371 27.525 61.136 27.083C61.833 26.658 62.683 26.437 63.499 26.437C64.298 26.454 65.097 26.59 65.845 26.828C66.593 27.083 67.239 27.695 67.698 28.341C68.055 28.834 68.293 29.446 68.429 30.058C68.633 30.925 68.684 31.809 68.667 32.693C68.633 34.036 68.276 35.43 67.579 36.569C67.171 37.283 66.593 37.946 65.896 38.388C65.284 38.796 64.553 39.068 63.805 39.153ZM63.04 35.005C63.601 35.311 64.213 34.869 64.519 34.325C64.961 33.577 65.097 32.625 64.961 31.775C64.893 31.367 64.757 30.959 64.502 30.619C64.366 30.432 64.145 30.245 63.907 30.194C63.669 30.126 63.397 30.194 63.193 30.347C62.224 30.993 61.952 32.846 62.309 33.951C62.445 34.359 62.666 34.801 63.04 35.005ZM73.5975 38.915C73.0705 39.119 72.4075 39.102 71.8805 38.864C71.3195 38.609 70.8605 38.116 70.5545 37.606C70.1125 36.858 69.9765 35.923 69.9255 35.056C69.8745 33.934 69.9595 32.795 70.1125 31.673C70.2315 30.687 70.4015 29.718 70.6905 28.783C70.7245 28.698 70.8095 28.392 70.8945 28.324C71.0135 28.018 71.2515 27.746 71.5235 27.525C71.9995 27.134 72.5605 26.828 73.1555 26.692C74.2775 26.454 75.4675 26.42 76.5895 26.641C77.8135 26.879 79.1055 27.457 79.9045 28.443C80.2785 28.902 80.5505 29.463 80.6525 30.041C80.7545 30.687 80.6185 31.384 80.3125 31.945C80.1085 32.353 79.8195 32.744 79.4625 33.05C79.1225 33.356 78.7145 33.577 78.3235 33.798C78.9525 34.376 79.7345 34.716 80.4485 35.175C80.7375 35.362 80.9925 35.634 81.1455 35.957C81.5705 36.858 81.0945 38.048 80.2105 38.524C79.8535 38.728 79.3775 38.779 78.9695 38.728C78.4085 38.66 77.8815 38.388 77.4055 38.082C76.3515 37.368 75.5865 36.263 74.9235 35.192C75.0595 35.889 75.0765 36.637 74.9065 37.317C74.7875 37.742 74.6005 38.15 74.2945 38.456C74.1075 38.66 73.8695 38.813 73.5975 38.915ZM75.3825 31.979C75.8415 32.166 76.5725 31.945 76.8785 31.554C77.0315 31.35 77.0995 31.061 77.0485 30.823C76.9635 30.398 76.5725 30.058 76.1985 29.871C75.9945 29.786 75.7565 29.718 75.5355 29.769C74.9405 29.939 74.7025 30.806 74.7705 31.435C74.9235 31.656 75.1275 31.877 75.3825 31.979ZM86.1661 38.762C85.4691 39.17 84.5851 39.17 83.9391 38.745C83.5481 38.49 83.2591 38.082 83.0721 37.657C82.6811 36.807 82.6131 35.821 82.5791 34.869C82.5451 33.798 82.5621 32.71 82.5961 31.639C82.6301 30.704 82.6301 29.752 82.8171 28.834C82.9871 28.035 83.5141 27.219 84.2621 26.862C85.0951 26.454 86.3191 26.607 86.8291 27.389C87.0331 27.695 87.1011 28.069 87.1351 28.443C87.2031 29.072 87.1691 29.701 87.1521 30.313C87.7811 29.378 88.5291 28.494 89.4131 27.78C89.9401 27.372 90.5181 26.981 91.1641 26.828C91.5551 26.76 91.9801 26.811 92.3371 26.964C93.0681 27.304 93.9181 28.46 93.8841 29.276C93.8671 29.939 93.4591 30.619 92.9491 31.044C92.2521 31.639 91.3681 31.979 90.5011 32.251C90.3991 32.285 90.1781 32.54 90.1101 32.608C90.0591 32.676 90.1271 32.863 90.1441 32.948C90.2631 33.322 90.5351 33.645 90.8241 33.917C91.1641 34.274 91.5721 34.563 91.9801 34.835C92.3031 35.039 92.6431 35.243 92.9321 35.515C93.1531 35.753 93.3401 36.059 93.3911 36.382C93.4421 36.654 93.4081 36.943 93.3231 37.198C93.1531 37.725 92.7621 38.201 92.2861 38.49C90.5691 39.578 88.7671 37.81 87.7641 36.042C87.6621 36.467 87.5431 36.892 87.3731 37.3C87.1181 37.878 86.7101 38.422 86.1661 38.762ZM108.304 38.83C107.964 38.983 107.556 39 107.199 38.932C106.757 38.847 106.332 38.592 105.975 38.32C105.431 37.895 104.989 37.351 104.564 36.807C103.952 36.025 103.459 35.141 103.017 34.257C102.983 35.328 102.966 36.416 102.728 37.47C102.626 37.895 102.456 38.354 102.15 38.66C101.98 38.813 101.776 38.915 101.555 38.949C100.501 39.136 99.7191 38.048 99.4981 36.994C99.3281 36.161 99.3791 35.294 99.3451 34.427C99.3281 33.815 99.3791 30.398 99.4131 29.786C99.4471 29.174 99.5321 28.562 99.7701 28.018C99.9741 27.542 100.297 27.083 100.756 26.828C101.181 26.607 101.776 26.59 102.218 26.794C102.745 27.015 103.187 27.406 103.527 27.865C104.156 28.664 104.649 29.565 105.125 30.466C105.465 31.129 105.805 31.775 106.128 32.438C106.094 31.435 106.128 30.432 106.247 29.446C106.298 28.936 106.434 28.443 106.638 27.984C106.808 27.61 107.063 27.236 107.386 26.998C107.726 26.726 108.236 26.59 108.661 26.709C108.933 26.794 109.171 26.981 109.358 27.202C109.868 27.848 110.106 28.698 110.208 29.514C110.446 31.231 110.378 32.999 110.191 34.733C110.106 35.6 110.004 36.501 109.681 37.3C109.409 37.929 108.933 38.541 108.304 38.83ZM117.593 39.153C116.692 39.238 115.757 39.102 114.907 38.813C113.904 38.473 113.003 37.691 112.425 36.807C112.187 36.433 111.949 36.042 111.813 35.617C111.456 34.563 111.456 33.407 111.575 32.319C111.711 31.095 112.255 29.888 112.986 28.868C113.496 28.171 114.159 27.525 114.924 27.083C115.621 26.658 116.471 26.437 117.287 26.437C118.086 26.454 118.885 26.59 119.633 26.828C120.381 27.083 121.027 27.695 121.486 28.341C121.843 28.834 122.081 29.446 122.217 30.058C122.421 30.925 122.472 31.809 122.455 32.693C122.421 34.036 122.064 35.43 121.367 36.569C120.959 37.283 120.381 37.946 119.684 38.388C119.072 38.796 118.341 39.068 117.593 39.153ZM116.828 35.005C117.389 35.311 118.001 34.869 118.307 34.325C118.749 33.577 118.885 32.625 118.749 31.775C118.681 31.367 118.545 30.959 118.29 30.619C118.154 30.432 117.933 30.245 117.695 30.194C117.457 30.126 117.185 30.194 116.981 30.347C116.012 30.993 115.74 32.846 116.097 33.951C116.233 34.359 116.454 34.801 116.828 35.005ZM128.901 39.102C128.459 39.221 127.949 39.238 127.49 39.136C127.439 39.119 127.099 39.051 127.031 39.034C126.487 38.864 126.028 38.439 125.671 37.997C125.195 37.419 124.787 36.756 124.481 36.059C124.107 35.175 123.886 34.223 123.716 33.271C123.563 32.268 123.478 31.231 123.529 30.194C123.563 29.429 123.733 28.613 124.158 27.967C124.532 27.389 125.144 26.896 125.824 26.743C126.47 26.59 127.167 26.794 127.66 27.27C128.085 27.661 128.34 28.239 128.51 28.783C128.918 30.262 128.731 31.86 128.731 33.39C128.731 33.73 128.765 34.07 128.867 34.393C128.901 34.478 128.969 34.648 129.071 34.648C129.173 34.648 129.292 34.478 129.326 34.393C129.479 34.087 129.547 33.747 129.598 33.424C129.751 32.608 129.7 31.758 129.785 30.942C129.819 30.466 129.938 29.973 130.159 29.548C130.499 28.885 131.281 28.46 132.012 28.528C132.301 28.545 132.573 28.681 132.777 28.885C133.032 29.14 133.219 29.463 133.355 29.803C133.593 30.398 133.661 31.044 133.712 31.673C133.763 32.404 133.78 33.169 133.746 33.9C133.746 34.002 133.865 34.291 133.933 34.376C133.984 34.444 134.086 34.529 134.171 34.512C134.358 34.512 134.562 34.206 134.63 34.036C134.8 33.645 134.885 33.22 134.953 32.778C135.055 32.217 135.106 31.656 135.14 31.095C135.191 30.432 135.174 29.752 135.293 29.106C135.361 28.681 135.514 28.256 135.769 27.882C136.5 26.794 138.013 26.471 139.05 27.287C139.577 27.712 139.968 28.324 140.206 28.953C140.614 30.007 140.631 31.214 140.41 32.319C140.138 33.764 139.611 35.175 138.897 36.45C138.54 37.096 138.081 37.674 137.537 38.167C137.146 38.507 136.704 38.813 136.211 38.966C135.922 39.068 135.599 39.068 135.293 39.017C134.256 38.881 133.304 38.354 132.607 37.538C132.267 37.147 132.012 36.688 131.808 36.212C131.485 36.892 131.043 37.521 130.533 38.065C130.091 38.524 129.53 38.915 128.901 39.102Z" fill="black"/>
</svg>
