<svg width="279" height="79" viewBox="0 0 279 79" fill="none" xmlns="http://www.w3.org/2000/svg">
<path d="M23.2613 71.7C21.1613 73.5 18.4613 74.5 15.7613 74.6C12.7613 74.6 9.56133 72.9 7.56133 70.6C4.76133 67.4 3.16133 63.1 2.16133 59C0.461328 52.5 0.161328 45.7 0.461328 39.1C0.761328 32.6 1.56133 26.2 2.96133 19.9C4.06133 14.9 5.86133 9.8 8.96133 5.7C9.76133 4.59999 10.9613 3.6 12.1613 3.1C15.0613 1.79999 28.2613 0.899994 31.4613 0.699997C37.4613 0.399995 43.7613 0.299996 49.4613 2.29999C52.9613 3.5 56.2613 5.9 58.4613 8.9C62.5613 14.8 60.2613 23 53.4613 25.3C51.6613 25.9 49.7613 25.9 47.9613 25.7C44.9613 25.3 41.9613 24.7 38.9613 24.5C37.1613 24.4 35.3613 24.4 33.6613 25C32.6613 25.3 31.6613 25.9 31.0613 26.7C29.9613 28.1 29.2613 30.3 30.9613 30.9C31.5613 31.1 32.1613 31.2 32.7613 31.2C37.1613 31.1 41.4613 30.2 45.7613 30.7C48.5613 30.9 51.6613 32.1 53.2613 34.4C55.7613 37.8 55.4613 44.8 52.8613 48.2C51.8613 49.6 50.1613 50.7 48.4613 51.2C45.4613 52.1 42.1613 51.8 39.0613 51.4C36.7613 51.1 34.3613 50.6 32.0613 51C30.9613 51.2 29.8613 51.8 29.1613 52.7C29.2613 56.7 29.0613 60.9 27.7613 64.7C26.8613 67.3 25.3613 69.9 23.2613 71.7ZM101.079 75.9C95.7793 76.4 90.2793 75.6 85.2793 73.9C79.3793 71.9 74.0793 67.3 70.6793 62.1C69.2793 59.9 67.8793 57.6 67.0793 55.1C64.9793 48.9 64.9793 42.1 65.6793 35.7C66.4793 28.5 69.6793 21.4 73.9793 15.4C76.9793 11.3 80.8793 7.5 85.3793 4.9C89.4793 2.4 94.4793 1.1 99.2793 1.1C103.979 1.2 108.679 2 113.079 3.4C117.479 4.9 121.279 8.5 123.979 12.3C126.079 15.2 127.479 18.8 128.279 22.4C129.479 27.5 129.779 32.7 129.679 37.9C129.479 45.8 127.379 54 123.279 60.7C120.879 64.9 117.479 68.8 113.379 71.4C109.779 73.8 105.479 75.4 101.079 75.9ZM96.5793 51.5C99.8793 53.3 103.479 50.7 105.279 47.5C107.879 43.1 108.679 37.5 107.879 32.5C107.479 30.1 106.679 27.7 105.179 25.7C104.379 24.6 103.079 23.5 101.679 23.2C100.279 22.8 98.6793 23.2 97.4793 24.1C91.7793 27.9 90.1793 38.8 92.2793 45.3C93.0793 47.7 94.3793 50.3 96.5793 51.5ZM158.682 74.5C155.582 75.7 151.682 75.6 148.582 74.2C145.282 72.7 142.582 69.8 140.782 66.8C138.182 62.4 137.382 56.9 137.082 51.8C136.782 45.2 137.282 38.5 138.182 31.9C138.882 26.1 139.882 20.4 141.582 14.9C141.782 14.4 142.282 12.6 142.782 12.2C143.482 10.4 144.882 8.79999 146.482 7.5C149.282 5.2 152.582 3.4 156.082 2.6C162.682 1.2 169.682 0.999999 176.282 2.29999C183.482 3.69999 191.082 7.1 195.782 12.9C197.982 15.6 199.582 18.9 200.182 22.3C200.782 26.1 199.982 30.2 198.182 33.5C196.982 35.9 195.282 38.2 193.182 40C191.182 41.8 188.782 43.1 186.482 44.4C190.182 47.8 194.782 49.8 198.982 52.5C200.682 53.6 202.182 55.2 203.082 57.1C205.582 62.4 202.782 69.4 197.582 72.2C195.482 73.4 192.682 73.7 190.282 73.4C186.982 73 183.882 71.4 181.082 69.6C174.882 65.4 170.382 58.9 166.482 52.6C167.282 56.7 167.382 61.1 166.382 65.1C165.682 67.6 164.582 70 162.782 71.8C161.682 73 160.282 73.9 158.682 74.5ZM169.182 33.7C171.882 34.8 176.182 33.5 177.982 31.2C178.882 30 179.282 28.3 178.982 26.9C178.482 24.4 176.182 22.4 173.982 21.3C172.782 20.8 171.382 20.4 170.082 20.7C166.582 21.7 165.182 26.8 165.582 30.5C166.482 31.8 167.682 33.1 169.182 33.7ZM232.615 73.6C228.515 76 223.315 76 219.515 73.5C217.215 72 215.515 69.6 214.415 67.1C212.115 62.1 211.715 56.3 211.515 50.7C211.315 44.4 211.415 38 211.615 31.7C211.815 26.2 211.815 20.6 212.915 15.2C213.915 10.5 217.015 5.7 221.415 3.6C226.315 1.2 233.515 2.1 236.515 6.7C237.715 8.5 238.115 10.7 238.315 12.9C238.715 16.6 238.515 20.3 238.415 23.9C242.115 18.4 246.515 13.2 251.715 9C254.815 6.6 258.215 4.3 262.015 3.4C264.315 3 266.815 3.3 268.915 4.2C273.215 6.2 278.215 13 278.015 17.8C277.915 21.7 275.515 25.7 272.515 28.2C268.415 31.7 263.215 33.7 258.115 35.3C257.515 35.5 256.215 37 255.815 37.4C255.515 37.8 255.915 38.9 256.015 39.4C256.715 41.6 258.315 43.5 260.015 45.1C262.015 47.2 264.415 48.9 266.815 50.5C268.715 51.7 270.715 52.9 272.415 54.5C273.715 55.9 274.815 57.7 275.115 59.6C275.415 61.2 275.215 62.9 274.715 64.4C273.715 67.5 271.415 70.3 268.615 72C258.515 78.4 247.915 68 242.015 57.6C241.415 60.1 240.715 62.6 239.715 65C238.215 68.4 235.815 71.6 232.615 73.6Z" fill="black"/>
<path d="M23.2613 71.7L23.9121 72.4593H23.9121L23.2613 71.7ZM15.7613 74.6V75.6H15.7798L15.7983 75.5993L15.7613 74.6ZM7.56133 70.6L8.31594 69.9438L8.3139 69.9415L7.56133 70.6ZM2.16133 59L3.13285 58.763L3.13088 58.755L3.12879 58.747L2.16133 59ZM0.461328 39.1L-0.537609 39.0539L-0.53764 39.0546L0.461328 39.1ZM2.96133 19.9L3.93752 20.1169L3.93797 20.1149L2.96133 19.9ZM8.96133 5.7L9.75899 6.30311L9.7646 6.29569L9.77007 6.28817L8.96133 5.7ZM12.1613 3.1L12.5459 4.02307L12.5582 4.01795L12.5704 4.01251L12.1613 3.1ZM31.4613 0.699997L31.4114 -0.298833L31.399 -0.298056L31.4613 0.699997ZM49.4613 2.29999L49.1302 3.24362L49.137 3.24594L49.4613 2.29999ZM58.4613 8.9L59.2825 8.32934L59.2753 8.31889L59.2677 8.30864L58.4613 8.9ZM53.4613 25.3L53.7776 26.2487L53.7817 26.2473L53.4613 25.3ZM47.9613 25.7L47.8292 26.6912L47.84 26.6927L47.8509 26.6939L47.9613 25.7ZM38.9613 24.5L39.0279 23.5022L39.0168 23.5015L38.9613 24.5ZM33.6613 25L33.9487 25.9578L33.9716 25.951L33.9942 25.943L33.6613 25ZM31.0613 26.7L31.8476 27.3178L31.8546 27.309L31.8613 27.3L31.0613 26.7ZM30.9613 30.9L30.6285 31.843L30.6368 31.8459L30.6451 31.8487L30.9613 30.9ZM32.7613 31.2V32.2H32.7727L32.784 32.1997L32.7613 31.2ZM45.7613 30.7L45.6458 31.6933L45.6679 31.6959L45.6901 31.6975L45.7613 30.7ZM53.2613 34.4L52.4404 34.9711L52.4479 34.9818L52.4557 34.9924L53.2613 34.4ZM52.8613 48.2L52.067 47.5925L52.0571 47.6055L52.0476 47.6188L52.8613 48.2ZM48.4613 51.2L48.1792 50.2406L48.174 50.2422L48.4613 51.2ZM39.0613 51.4L38.932 52.3916L38.9334 52.3918L39.0613 51.4ZM32.0613 51L31.89 50.0148L31.8824 50.0161L32.0613 51ZM29.1613 52.7L28.372 52.0861L28.1527 52.368L28.1616 52.725L29.1613 52.7ZM27.7613 64.7L28.7063 65.0271L28.7075 65.0237L27.7613 64.7ZM22.6105 70.9407C20.6902 72.5867 18.2094 73.5086 15.7243 73.6007L15.7983 75.5993C18.7133 75.4914 21.6324 74.4133 23.9121 72.4593L22.6105 70.9407ZM15.7613 73.6C13.1016 73.6 10.1621 72.0669 8.31593 69.9438L6.80672 71.2562C8.96055 73.7331 12.4211 75.6 15.7613 75.6V73.6ZM8.3139 69.9415C5.67013 66.92 4.11844 62.804 3.13285 58.763L1.18981 59.237C2.20422 63.396 3.85252 67.88 6.80875 71.2585L8.3139 69.9415ZM3.12879 58.747C1.46358 52.38 1.16282 45.69 1.4603 39.1454L-0.53764 39.0546C-0.840158 45.71 -0.540926 52.62 1.19387 59.253L3.12879 58.747ZM1.46026 39.1461C1.75788 32.6978 2.55119 26.3554 3.93752 20.1169L1.98514 19.6831C0.571468 26.0446 -0.23522 32.5021 -0.537608 39.0539L1.46026 39.1461ZM3.93797 20.1149C5.02257 15.1849 6.78104 10.2417 9.75899 6.30311L8.16367 5.09689C4.94162 9.35831 3.10008 14.6151 1.98468 19.6851L3.93797 20.1149ZM9.77007 6.28817C10.4767 5.3166 11.5368 4.44353 12.5459 4.02307L11.7767 2.17692C10.3858 2.75646 9.046 3.88339 8.15259 5.11183L9.77007 6.28817ZM12.5704 4.01251C13.1569 3.74958 14.3977 3.46489 16.1078 3.19221C17.7763 2.92617 19.777 2.68777 21.7998 2.48238C25.8434 2.0718 29.9286 1.79774 31.5237 1.69805L31.399 -0.298056C29.7941 -0.197753 25.6792 0.0781877 21.5978 0.49261C19.5581 0.699717 17.5151 0.942566 15.7929 1.21716C14.1125 1.4851 12.6157 1.80042 11.7523 2.18749L12.5704 4.01251ZM31.5113 1.69875C37.5165 1.39849 43.6356 1.31565 49.1302 3.24359L49.7924 1.35639C43.8871 -0.715662 37.4062 -0.598497 31.4114 -0.298755L31.5113 1.69875ZM49.137 3.24594C52.4472 4.38086 55.5777 6.65878 57.6549 9.49136L59.2677 8.30864C56.945 5.14121 53.4755 2.61913 49.7857 1.35405L49.137 3.24594ZM57.6401 9.47066C61.399 14.8797 59.2477 22.2872 53.1409 24.3527L53.7817 26.2473C61.2749 23.7128 63.7237 14.7203 59.2825 8.32934L57.6401 9.47066ZM53.1451 24.3513C51.5413 24.8859 49.8061 24.8988 48.0718 24.7061L47.8509 26.6939C49.7166 26.9012 51.7814 26.9141 53.7776 26.2487L53.1451 24.3513ZM48.0935 24.7088C45.1856 24.3211 42.0664 23.7048 39.0278 23.5022L38.8948 25.4978C41.8563 25.6952 44.737 26.2789 47.8292 26.6912L48.0935 24.7088ZM39.0168 23.5015C37.1995 23.4006 35.2283 23.3865 33.3285 24.057L33.9942 25.943C35.4944 25.4135 37.1232 25.3994 38.9059 25.4985L39.0168 23.5015ZM33.374 24.0422C32.2276 24.3861 31.0218 25.086 30.2613 26.1L31.8613 27.3C32.3008 26.714 33.0951 26.2139 33.9487 25.9578L33.374 24.0422ZM30.275 26.0822C29.6533 26.8734 29.0985 27.9402 28.9691 28.976C28.9032 29.5029 28.9395 30.0923 29.2107 30.6347C29.4943 31.2019 29.9844 31.6157 30.6285 31.843L31.2942 29.957C31.0882 29.8843 31.0284 29.7981 30.9995 29.7403C30.9582 29.6577 30.9195 29.4971 30.9536 29.224C31.0241 28.6598 31.3693 27.9266 31.8476 27.3178L30.275 26.0822ZM30.6451 31.8487C31.3415 32.0808 32.0482 32.2 32.7613 32.2V30.2C32.2745 30.2 31.7811 30.1192 31.2776 29.9513L30.6451 31.8487ZM32.784 32.1997C35.0226 32.1489 37.2617 31.8931 39.3795 31.7217C41.5263 31.548 43.5966 31.455 45.6458 31.6933L45.8768 29.7067C43.626 29.445 41.3963 29.552 39.2182 29.7283C37.0109 29.9069 34.9 30.1511 32.7386 30.2003L32.784 32.1997ZM45.6901 31.6975C48.3234 31.8856 51.0777 33.0122 52.4404 34.9711L54.0822 33.8289C52.2449 31.1878 48.7993 29.9144 45.8326 29.7025L45.6901 31.6975ZM52.4557 34.9924C53.5225 36.4432 54.0578 38.7884 53.9744 41.2664C53.8912 43.7387 53.1993 46.1119 52.067 47.5925L53.6557 48.8074C55.1234 46.8881 55.8815 44.0613 55.9733 41.3336C56.0649 38.6116 55.5002 35.7568 54.067 33.8076L52.4557 34.9924ZM52.0476 47.6188C51.1984 48.8076 49.702 49.7928 48.1792 50.2406L48.7435 52.1594C50.6207 51.6072 52.5242 50.3924 53.6751 48.7812L52.0476 47.6188ZM48.174 50.2422C45.4006 51.0742 42.2962 50.8091 39.1893 50.4082L38.9334 52.3918C42.0265 52.7909 45.522 53.1258 48.7487 52.1578L48.174 50.2422ZM39.1907 50.4084C37.0062 50.1235 34.3846 49.5809 31.89 50.0148L32.2327 51.9852C34.338 51.6191 36.5165 52.0765 38.932 52.3916L39.1907 50.4084ZM31.8824 50.0161C30.5736 50.2541 29.2425 50.9668 28.372 52.0861L29.9507 53.3139C30.4801 52.6332 31.3491 52.1459 32.2402 51.9839L31.8824 50.0161ZM28.1616 52.725C28.2608 56.6904 28.0567 60.7471 26.8152 64.3763L28.7075 65.0237C30.0659 61.0529 30.2619 56.7096 30.161 52.675L28.1616 52.725ZM26.8163 64.3729C25.9554 66.86 24.5378 69.2888 22.6105 70.9407L23.9121 72.4593C26.1848 70.5112 27.7672 67.74 28.7063 65.0271L26.8163 64.3729ZM101.079 75.9L101.173 76.8956L101.183 76.8947L101.192 76.8936L101.079 75.9ZM85.2793 73.9L85.6012 72.9532L85.6003 72.9529L85.2793 73.9ZM70.6793 62.1L69.8356 62.6369L69.8423 62.6472L70.6793 62.1ZM67.0793 55.1L68.0317 54.7952L68.0292 54.7872L68.0264 54.7792L67.0793 55.1ZM65.6793 35.7L64.6854 35.5896L64.6852 35.5913L65.6793 35.7ZM73.9793 15.4L73.1722 14.8095L73.1665 14.8175L73.9793 15.4ZM85.3793 4.9L85.8796 5.76586L85.8898 5.75995L85.8999 5.75379L85.3793 4.9ZM99.2793 1.1L99.3006 0.100224L99.2899 0.0999978H99.2793V1.1ZM113.079 3.4L113.402 2.45349L113.392 2.45018L113.382 2.44707L113.079 3.4ZM123.979 12.3L123.164 12.8792L123.169 12.8865L123.979 12.3ZM128.279 22.4L127.303 22.6169L127.306 22.629L128.279 22.4ZM129.679 37.9L130.679 37.9253L130.679 37.9192L129.679 37.9ZM123.279 60.7L122.426 60.178L122.419 60.1908L122.411 60.2039L123.279 60.7ZM113.379 71.4L112.844 70.5555L112.834 70.5616L112.825 70.5679L113.379 71.4ZM96.5793 51.5L97.0582 50.6221L96.5793 51.5ZM105.279 47.5L104.418 46.9913L104.413 47.0004L104.408 47.0097L105.279 47.5ZM107.879 32.5L108.867 32.342L108.866 32.3356L107.879 32.5ZM105.179 25.7L104.371 26.2882L104.375 26.2941L104.379 26.3L105.179 25.7ZM101.679 23.2L101.405 24.1615L101.437 24.1708L101.47 24.1778L101.679 23.2ZM97.4793 24.1L98.034 24.9321L98.0571 24.9167L98.0793 24.9L97.4793 24.1ZM92.2793 45.3L91.3277 45.6074L91.3306 45.6162L92.2793 45.3ZM100.985 74.9044C95.8441 75.3895 90.4861 74.6141 85.6012 72.9532L84.9574 74.8468C90.0725 76.5859 95.7145 77.4106 101.173 76.8956L100.985 74.9044ZM85.6003 72.9529C79.9505 71.0377 74.818 66.6025 71.5163 61.5527L69.8423 62.6472C73.3406 67.9975 78.8081 72.7623 84.9583 74.8471L85.6003 72.9529ZM71.523 61.5631C70.1208 59.3597 68.7878 57.158 68.0317 54.7952L66.1269 55.4048C66.9708 58.042 68.4378 60.4403 69.8356 62.6369L71.523 61.5631ZM68.0264 54.7792C65.9944 48.7799 65.98 42.1485 66.6734 35.8087L64.6852 35.5913C63.9786 42.0515 63.9642 49.0201 66.1321 55.4208L68.0264 54.7792ZM66.6732 35.8104C67.4498 28.8208 70.5654 21.8802 74.7921 15.9825L73.1665 14.8175C68.7932 20.9198 65.5088 28.1792 64.6854 35.5896L66.6732 35.8104ZM74.7863 15.9905C77.7213 11.9794 81.5224 8.28332 85.8796 5.76586L84.879 4.03413C80.2362 6.71668 76.2373 10.6206 73.1723 14.8095L74.7863 15.9905ZM85.8999 5.75379C89.8312 3.35665 94.6486 2.1 99.2793 2.1V0.0999978C94.31 0.0999978 89.1274 1.44335 84.8587 4.0462L85.8999 5.75379ZM99.258 2.09977C103.86 2.19769 108.466 2.9814 112.776 4.35292L113.382 2.44707C108.893 1.0186 104.098 0.202298 99.3006 0.100224L99.258 2.09977ZM112.757 4.34651C116.882 5.75278 120.529 9.17014 123.164 12.8792L124.794 11.7208C122.03 7.82985 118.077 4.04721 113.402 2.45349L112.757 4.34651ZM123.169 12.8865C125.168 15.6468 126.524 19.1098 127.303 22.6169L129.255 22.1831C128.435 18.4902 126.99 14.7532 124.789 11.7135L123.169 12.8865ZM127.306 22.629C128.48 27.6193 128.779 32.729 128.679 37.8808L130.679 37.9192C130.78 32.671 130.479 27.3807 129.253 22.171L127.306 22.629ZM128.68 37.8747C128.483 45.6272 126.421 53.6501 122.426 60.178L124.132 61.222C128.338 54.3499 130.475 45.9728 130.679 37.9253L128.68 37.8747ZM122.411 60.2039C120.075 64.2918 116.78 68.0593 112.844 70.5555L113.915 72.2445C118.179 69.5407 121.684 65.5082 124.148 61.1961L122.411 60.2039ZM112.825 70.5679C109.355 72.8809 105.206 74.4246 100.966 74.9064L101.192 76.8936C105.752 76.3754 110.203 74.7191 113.934 72.232L112.825 70.5679ZM96.1004 52.3779C98.1131 53.4757 100.203 53.2014 101.965 52.2562C103.702 51.3239 105.178 49.7204 106.151 47.9903L104.408 47.0097C103.581 48.4796 102.357 49.7761 101.019 50.4938C99.7056 51.1986 98.3455 51.3243 97.0582 50.6221L96.1004 52.3779ZM106.14 48.0087C108.876 43.3798 109.698 37.5376 108.867 32.342L106.892 32.658C107.661 37.4624 106.883 42.8202 104.418 46.9913L106.14 48.0087ZM108.866 32.3356C108.449 29.8374 107.606 27.2692 105.979 25.1L104.379 26.3C105.752 28.1308 106.509 30.3626 106.893 32.6644L108.866 32.3356ZM105.988 25.1118C105.104 23.8966 103.615 22.5921 101.889 22.2222L101.47 24.1778C102.544 24.4079 103.654 25.3034 104.371 26.2882L105.988 25.1118ZM101.954 22.2385C100.201 21.7376 98.2827 22.2474 96.8793 23.3L98.0793 24.9C99.0759 24.1526 100.358 23.8624 101.405 24.1615L101.954 22.2385ZM96.9246 23.268C93.7617 25.3766 91.8505 29.3522 90.976 33.4803C90.0969 37.6303 90.2144 42.1614 91.3277 45.6074L93.2309 44.9926C92.2442 41.9386 92.1117 37.7697 92.9326 33.8947C93.7581 29.9977 95.4969 26.6234 98.034 24.9321L96.9246 23.268ZM91.3306 45.6162C92.1422 48.051 93.5425 50.9826 96.1004 52.3779L97.0582 50.6221C95.2161 49.6174 94.0164 47.349 93.228 44.9838L91.3306 45.6162ZM158.682 74.5L158.331 73.5636L158.321 73.5674L158.682 74.5ZM148.582 74.2L148.169 75.1104L148.171 75.1114L148.582 74.2ZM140.782 66.8L139.921 67.3087L139.925 67.3145L140.782 66.8ZM137.082 51.8L136.083 51.8454L136.084 51.8587L137.082 51.8ZM138.182 31.9L139.173 32.0351L139.174 32.0275L139.175 32.0198L138.182 31.9ZM141.582 14.9L140.654 14.5286L140.639 14.5661L140.627 14.6047L141.582 14.9ZM142.782 12.2L143.407 12.9809L143.617 12.813L143.714 12.5624L142.782 12.2ZM146.482 7.5L147.113 8.27612L147.117 8.27273L146.482 7.5ZM156.082 2.6L155.875 1.62176L155.867 1.62339L155.86 1.62514L156.082 2.6ZM176.282 2.29999L176.089 3.28115L176.092 3.28161L176.282 2.29999ZM195.782 12.9L195.005 13.5296L195.007 13.5317L195.782 12.9ZM200.182 22.3L201.17 22.144L201.169 22.1351L201.167 22.1262L200.182 22.3ZM198.182 33.5L197.305 33.0211L197.296 33.0368L197.288 33.0528L198.182 33.5ZM193.182 40L192.532 39.2407L192.522 39.2486L192.513 39.2567L193.182 40ZM186.482 44.4L185.99 43.5294L184.793 44.206L185.806 45.1363L186.482 44.4ZM198.982 52.5L199.526 51.6604L199.523 51.6588L198.982 52.5ZM203.082 57.1L203.987 56.6734L203.986 56.6719L203.082 57.1ZM197.582 72.2L197.108 71.3195L197.097 71.3255L197.086 71.3318L197.582 72.2ZM190.282 73.4L190.406 72.4077L190.403 72.4073L190.282 73.4ZM181.082 69.6L180.522 70.4279L180.532 70.4347L180.542 70.4412L181.082 69.6ZM166.482 52.6L167.333 52.0736L165.501 52.7915L166.482 52.6ZM166.382 65.1L167.345 65.3696L167.349 65.3561L167.353 65.3425L166.382 65.1ZM162.782 71.8L162.075 71.0929L162.06 71.1083L162.045 71.1243L162.782 71.8ZM169.182 33.7L169.56 32.7739L169.554 32.7715L169.182 33.7ZM177.982 31.2L178.77 31.8163L178.776 31.8082L178.782 31.8L177.982 31.2ZM178.982 26.9L178.002 27.0961L178.005 27.1095L178.982 26.9ZM173.982 21.3L174.43 20.4056L174.399 20.3902L174.367 20.3769L173.982 21.3ZM170.082 20.7L169.858 19.7256L169.832 19.7314L169.808 19.7385L170.082 20.7ZM165.582 30.5L164.588 30.6075L164.616 30.8602L164.76 31.0692L165.582 30.5ZM158.321 73.5674C155.473 74.6701 151.851 74.579 148.994 73.2886L148.171 75.1114C151.514 76.621 155.692 76.7299 159.043 75.4326L158.321 73.5674ZM148.996 73.2896C145.936 71.8988 143.372 69.1725 141.64 66.2855L139.925 67.3145C141.793 70.4275 144.628 73.5012 148.169 75.1104L148.996 73.2896ZM141.643 66.2913C139.171 62.1071 138.379 56.8103 138.081 51.7413L136.084 51.8587C136.386 56.9897 137.194 62.6929 139.921 67.3087L141.643 66.2913ZM138.081 51.7546C137.785 45.2333 138.278 38.5969 139.173 32.0351L137.192 31.7649C136.286 38.4031 135.78 45.1667 136.083 51.8454L138.081 51.7546ZM139.175 32.0198C139.871 26.2522 140.862 20.6168 142.538 15.1953L140.627 14.6047C138.903 20.1832 137.894 25.9478 137.19 31.7802L139.175 32.0198ZM142.511 15.2714C142.574 15.1135 142.655 14.8703 142.731 14.6433C142.814 14.3984 142.906 14.1289 143.005 13.8659C143.106 13.5997 143.206 13.3625 143.3 13.1794C143.412 12.9629 143.458 12.9402 143.407 12.9809L142.158 11.4191C141.857 11.6598 141.652 12.0121 141.524 12.2612C141.378 12.5437 141.246 12.8628 141.134 13.1591C141.021 13.4586 140.919 13.7579 140.837 14.0036C140.748 14.2672 140.691 14.4365 140.654 14.5286L142.511 15.2714ZM143.714 12.5624C144.329 10.9832 145.588 9.51514 147.113 8.27611L145.852 6.72388C144.177 8.08485 142.636 9.8168 141.85 11.8376L143.714 12.5624ZM147.117 8.27273C149.823 6.0503 152.985 4.33368 156.305 3.57485L155.86 1.62514C152.179 2.46631 148.742 4.3497 145.848 6.72727L147.117 8.27273ZM156.29 3.57823C162.773 2.20301 169.636 2.01007 176.089 3.28114L176.476 1.31885C169.729 -0.0100732 162.592 0.19698 155.875 1.62176L156.29 3.57823ZM176.092 3.28161C183.158 4.65563 190.506 7.97649 195.005 13.5296L196.559 12.2704C191.659 6.2235 183.807 2.74436 176.473 1.31838L176.092 3.28161ZM195.007 13.5317C197.11 16.1127 198.63 19.2579 199.198 22.4738L201.167 22.1262C200.535 18.5421 198.855 15.0873 196.558 12.2683L195.007 13.5317ZM199.195 22.456C199.758 26.0248 199.005 29.9028 197.305 33.0211L199.06 33.9788C200.959 30.4972 201.807 26.1752 201.17 22.144L199.195 22.456ZM197.288 33.0528C196.14 35.3488 194.518 37.5379 192.532 39.2407L193.833 40.7593C196.047 38.8621 197.825 36.4512 199.077 33.9472L197.288 33.0528ZM192.513 39.2567C190.613 40.9673 188.324 42.2107 185.99 43.5294L186.974 45.2706C189.241 43.9893 191.752 42.6327 193.851 40.7433L192.513 39.2567ZM185.806 45.1363C187.733 46.9072 189.879 48.2992 192.036 49.5735C194.228 50.8678 196.359 52.0021 198.442 53.3412L199.523 51.6588C197.406 50.2979 195.137 49.0822 193.053 47.8515C190.936 46.6008 188.932 45.2927 187.159 43.6637L185.806 45.1363ZM198.439 53.3396C200.001 54.3503 201.367 55.8146 202.179 57.5281L203.986 56.6719C202.998 54.5854 201.364 52.8497 199.526 51.6604L198.439 53.3396ZM202.178 57.5266C204.42 62.2788 201.908 68.7349 197.108 71.3195L198.057 73.0805C203.656 70.0651 206.745 62.5212 203.987 56.6734L202.178 57.5266ZM197.086 71.3318C195.231 72.3922 192.667 72.6902 190.406 72.4077L190.158 74.3923C192.698 74.7098 195.734 74.4078 198.079 73.0682L197.086 71.3318ZM190.403 72.4073C187.331 72.0349 184.386 70.5347 181.623 68.7588L180.542 70.4412C183.379 72.2653 186.634 73.9651 190.162 74.3927L190.403 72.4073ZM181.643 68.7721C175.635 64.7019 171.229 58.3676 167.333 52.0736L165.632 53.1264C169.536 59.4324 174.13 66.0981 180.522 70.4279L181.643 68.7721ZM165.501 52.7915C166.28 56.7848 166.369 61.0322 165.412 64.8575L167.353 65.3425C168.396 61.1678 168.285 56.6152 167.464 52.4085L165.501 52.7915ZM165.419 64.8304C164.744 67.2416 163.708 69.4603 162.075 71.0929L163.49 72.5071C165.457 70.5397 166.621 67.9584 167.345 65.3696L165.419 64.8304ZM162.045 71.1243C161.064 72.1943 159.803 73.0119 158.331 73.5637L159.034 75.4363C160.762 74.7881 162.3 73.8057 163.52 72.4757L162.045 71.1243ZM168.805 34.6261C170.431 35.2885 172.427 35.1993 174.199 34.6854C175.973 34.1706 177.705 33.1774 178.77 31.8163L177.195 30.5837C176.46 31.5226 175.141 32.3294 173.641 32.7646C172.138 33.2007 170.634 33.2115 169.56 32.7739L168.805 34.6261ZM178.782 31.8C179.844 30.3841 180.325 28.3917 179.96 26.6905L178.005 27.1095C178.24 28.2083 177.92 29.6159 177.182 30.6L178.782 31.8ZM179.963 26.7039C179.373 23.7562 176.739 21.5601 174.43 20.4056L173.535 22.1944C175.626 23.2399 177.591 25.0438 178.002 27.0961L179.963 26.7039ZM174.367 20.3769C173.128 19.8605 171.478 19.3516 169.858 19.7256L170.307 21.6744C171.286 21.4484 172.437 21.7395 173.598 22.2231L174.367 20.3769ZM169.808 19.7385C167.636 20.3589 166.235 22.2122 165.44 24.2193C164.639 26.2422 164.372 28.6064 164.588 30.6075L166.577 30.3925C166.393 28.6936 166.626 26.6578 167.3 24.9557C167.98 23.2378 169.029 22.0411 170.357 21.6615L169.808 19.7385ZM164.76 31.0692C165.7 32.4266 167.039 33.9196 168.811 34.6285L169.554 32.7715C168.326 32.2804 167.265 31.1734 166.405 29.9308L164.76 31.0692ZM232.615 73.6L233.12 74.463L233.133 74.4557L233.145 74.448L232.615 73.6ZM219.515 73.5L220.065 72.6646L220.062 72.6624L219.515 73.5ZM214.415 67.1L215.331 66.6973L215.327 66.6896L215.324 66.6821L214.415 67.1ZM211.515 50.7L210.516 50.7317L210.516 50.7357L211.515 50.7ZM211.615 31.7L210.616 31.6637L210.616 31.6683L211.615 31.7ZM212.915 15.2L211.937 14.9919L211.935 15.0004L212.915 15.2ZM221.415 3.6L221.846 4.50252L221.855 4.49806L221.415 3.6ZM236.515 6.7L235.678 7.24629L235.683 7.2547L236.515 6.7ZM238.315 12.9L237.319 12.9905L237.32 12.999L237.321 13.0075L238.315 12.9ZM238.415 23.9L237.416 23.8722L237.32 27.3198L239.245 24.4582L238.415 23.9ZM251.715 9L251.103 8.20927L251.095 8.21558L251.087 8.22206L251.715 9ZM262.015 3.4L261.844 2.41479L261.814 2.41996L261.785 2.42692L262.015 3.4ZM268.915 4.2L269.337 3.29328L269.323 3.28685L269.309 3.28085L268.915 4.2ZM278.015 17.8L277.016 17.7584L277.016 17.7664L277.016 17.7744L278.015 17.8ZM272.515 28.2L271.875 27.4317L271.866 27.4394L272.515 28.2ZM258.115 35.3L257.816 34.3459L257.807 34.3485L257.799 34.3513L258.115 35.3ZM255.815 37.4L255.108 36.6929L255.058 36.7431L255.015 36.8L255.815 37.4ZM256.015 39.4L255.035 39.5961L255.046 39.6504L255.062 39.7032L256.015 39.4ZM260.015 45.1L260.739 44.4103L260.721 44.3905L260.701 44.3718L260.015 45.1ZM266.815 50.5L266.261 51.3321L266.271 51.3389L266.281 51.3455L266.815 50.5ZM272.415 54.5L273.148 53.8195L273.125 53.7949L273.101 53.7718L272.415 54.5ZM275.115 59.6L274.127 59.756L274.13 59.7702L274.132 59.7843L275.115 59.6ZM274.715 64.4L273.767 64.0838L273.764 64.093L274.715 64.4ZM268.615 72L268.096 71.1452L268.088 71.1502L268.08 71.1553L268.615 72ZM242.015 57.6L242.885 57.1066L241.634 54.902L241.043 57.3666L242.015 57.6ZM239.715 65L240.63 65.4036L240.634 65.3942L240.638 65.3846L239.715 65ZM232.11 72.737C228.31 74.9615 223.52 74.938 220.065 72.6646L218.966 74.3354C223.11 77.062 228.721 77.0385 233.12 74.463L232.11 72.737ZM220.062 72.6624C217.973 71.3006 216.38 69.0824 215.331 66.6973L213.5 67.5027C214.65 70.1176 216.457 72.6994 218.969 74.3376L220.062 72.6624ZM215.324 66.6821C213.117 61.8855 212.715 56.2737 212.515 50.6643L210.516 50.7357C210.716 56.3263 211.113 62.3145 213.507 67.5179L215.324 66.6821ZM212.515 50.6683C212.316 44.3986 212.415 38.0224 212.615 31.7317L210.616 31.6683C210.415 37.9776 210.315 44.4014 210.516 50.7317L212.515 50.6683ZM212.615 31.7363C212.817 26.1821 212.816 20.6958 213.895 15.3996L211.935 15.0004C210.814 20.5042 210.814 26.2179 210.616 31.6637L212.615 31.7363ZM213.893 15.4081C214.846 10.9326 217.792 6.43714 221.846 4.50248L220.984 2.69751C216.238 4.96285 212.985 10.0674 211.937 14.9919L213.893 15.4081ZM221.855 4.49806C224.1 3.39845 226.907 3.04402 229.501 3.50929C232.095 3.97454 234.366 5.23577 235.678 7.24626L237.353 6.15373C235.664 3.56423 232.835 2.07545 229.854 1.54071C226.873 1.00597 223.63 1.40154 220.975 2.70193L221.855 4.49806ZM235.683 7.2547C236.738 8.83653 237.122 10.824 237.319 12.9905L239.311 12.8095C239.108 10.576 238.693 8.16347 237.347 6.1453L235.683 7.2547ZM237.321 13.0075C237.712 16.6219 237.517 20.2334 237.416 23.8722L239.415 23.9278C239.514 20.3666 239.719 16.5781 239.309 12.7925L237.321 13.0075ZM239.245 24.4582C242.905 19.0175 247.241 13.8995 252.344 9.77794L251.087 8.22206C245.79 12.5005 241.325 17.7825 237.586 23.3418L239.245 24.4582ZM252.327 9.79072C255.413 7.40192 258.669 5.22025 262.246 4.37308L261.785 2.42692C257.762 3.37975 254.218 5.79808 251.103 8.20927L252.327 9.79072ZM262.187 4.38521C264.296 4.01843 266.599 4.29537 268.521 5.11914L269.309 3.28085C267.031 2.30463 264.335 1.98156 261.844 2.41479L262.187 4.38521ZM268.493 5.10672C270.428 6.00637 272.628 8.05608 274.33 10.5186C276.04 12.9929 277.103 15.6741 277.016 17.7584L279.014 17.8416C279.128 15.1259 277.79 12.0071 275.975 9.38142C274.152 6.74391 271.703 4.39363 269.337 3.29328L268.493 5.10672ZM277.016 17.7744C276.925 21.3163 274.714 25.0657 271.875 27.4318L273.155 28.9682C276.316 26.3343 278.906 22.0837 279.015 17.8256L277.016 17.7744ZM271.866 27.4394C267.929 30.8004 262.895 32.7524 257.816 34.3459L258.415 36.2541C263.536 34.6476 268.902 32.5996 273.164 28.9606L271.866 27.4394ZM257.799 34.3513C257.459 34.4647 257.142 34.7042 256.923 34.8843C256.675 35.0889 256.418 35.3332 256.183 35.5679C255.946 35.8048 255.718 36.0457 255.529 36.2473C255.331 36.4593 255.193 36.608 255.108 36.6929L256.522 38.1071C256.637 37.992 256.812 37.8032 256.989 37.6152C257.174 37.4168 257.384 37.1952 257.597 36.9821C257.813 36.7668 258.018 36.5736 258.195 36.4282C258.401 36.2583 258.472 36.2353 258.431 36.2487L257.799 34.3513ZM255.015 36.8C254.754 37.1488 254.711 37.5458 254.706 37.7922C254.701 38.0609 254.74 38.33 254.783 38.5525C254.828 38.7805 254.885 39.0045 254.932 39.1852C254.984 39.3846 255.017 39.5077 255.035 39.5961L256.996 39.2039C256.964 39.0423 256.909 38.8404 256.867 38.6804C256.821 38.5018 256.778 38.332 256.747 38.1725C256.715 38.0075 256.704 37.8953 256.706 37.8296C256.707 37.7416 256.727 37.8512 256.615 38L255.015 36.8ZM255.062 39.7032C255.84 42.1477 257.59 44.1903 259.33 45.8282L260.701 44.3718C259.041 42.8097 257.59 41.0523 256.968 39.0968L255.062 39.7032ZM259.291 45.7897C261.373 47.9761 263.854 49.7278 266.261 51.3321L267.37 49.6679C264.976 48.0722 262.657 46.4239 260.739 44.4103L259.291 45.7897ZM266.281 51.3455C268.215 52.5666 270.116 53.7096 271.73 55.2282L273.101 53.7718C271.314 52.0904 269.216 50.8334 267.349 49.6545L266.281 51.3455ZM271.682 55.1804C272.9 56.4912 273.869 58.1165 274.127 59.756L276.103 59.444C275.762 57.2835 274.531 55.3088 273.148 53.8195L271.682 55.1804ZM274.132 59.7843C274.395 61.1865 274.224 62.7124 273.767 64.0838L275.664 64.7162C276.207 63.0876 276.435 61.2135 276.098 59.4157L274.132 59.7843ZM273.764 64.093C272.842 66.9499 270.704 69.5618 268.096 71.1452L269.134 72.8548C272.126 71.0382 274.589 68.0501 275.667 64.707L273.764 64.093ZM268.08 71.1553C263.468 74.0778 258.733 73.2264 254.295 70.268C249.823 67.2864 245.792 62.2312 242.885 57.1066L241.145 58.0934C244.138 63.3688 248.358 68.7136 253.186 71.9321C258.048 75.1736 263.662 76.3222 269.15 72.8447L268.08 71.1553ZM241.043 57.3666C240.448 59.8458 239.762 62.2869 238.792 64.6154L240.638 65.3846C241.668 62.9131 242.383 60.3542 242.988 57.8334L241.043 57.3666ZM238.8 64.5964C237.36 67.8617 235.075 70.8833 232.085 72.752L233.145 74.448C236.555 72.3167 239.071 68.9383 240.63 65.4036L238.8 64.5964Z" fill="black"/>
</svg>
