<svg width="186" height="64" viewBox="0 0 186 64" fill="none" xmlns="http://www.w3.org/2000/svg">
<rect x="0.5" y="0.500122" width="185" height="63" rx="16.5" fill="white" stroke="black"/>
<path d="M50.5759 38.4391C50.2189 38.7451 49.7599 38.9151 49.3009 38.9321C48.7909 38.9321 48.2469 38.6431 47.9069 38.2521C47.4309 37.7081 47.1589 36.9771 46.9889 36.2801C46.6999 35.1751 46.6489 34.0191 46.6999 32.8971C46.7509 31.7921 46.8869 30.7041 47.1249 29.6331C47.3119 28.7831 47.6179 27.9161 48.1449 27.2191C48.2809 27.0321 48.4849 26.8621 48.6889 26.7771C49.1819 26.5561 51.4259 26.4031 51.9699 26.3691C52.9899 26.3181 54.0609 26.3011 55.0299 26.6411C55.6249 26.8451 56.1859 27.2531 56.5599 27.7631C57.2569 28.7661 56.8659 30.1601 55.7099 30.5511C55.4039 30.6531 55.0809 30.6531 54.7749 30.6191C54.2649 30.5511 53.7549 30.4491 53.2449 30.4151C52.9389 30.3981 52.6329 30.3981 52.3439 30.5001C52.1739 30.5511 52.0039 30.6531 51.9019 30.7891C51.7149 31.0271 51.5959 31.4011 51.8849 31.5031C51.9869 31.5371 52.0889 31.5541 52.1909 31.5541C52.9389 31.5371 53.6699 31.3841 54.4009 31.4691C54.8769 31.5031 55.4039 31.7071 55.6759 32.0981C56.1009 32.6761 56.0499 33.8661 55.6079 34.4441C55.4379 34.6821 55.1489 34.8691 54.8599 34.9541C54.3499 35.1071 53.7889 35.0561 53.2619 34.9881C52.8709 34.9371 52.4629 34.8521 52.0719 34.9201C51.8849 34.9541 51.6979 35.0561 51.5789 35.2091C51.5959 35.8891 51.5619 36.6031 51.3409 37.2491C51.1879 37.6911 50.9329 38.1331 50.5759 38.4391ZM63.805 39.1531C62.904 39.2381 61.969 39.1021 61.119 38.8131C60.116 38.4731 59.215 37.6911 58.637 36.8071C58.399 36.4331 58.161 36.0421 58.025 35.6171C57.668 34.5631 57.668 33.4071 57.787 32.3191C57.923 31.0951 58.467 29.8881 59.198 28.8681C59.708 28.1711 60.371 27.5251 61.136 27.0831C61.833 26.6581 62.683 26.4371 63.499 26.4371C64.298 26.4541 65.097 26.5901 65.845 26.8281C66.593 27.0831 67.239 27.6951 67.698 28.3411C68.055 28.8341 68.293 29.4461 68.429 30.0581C68.633 30.9251 68.684 31.8091 68.667 32.6931C68.633 34.0361 68.276 35.4301 67.579 36.5691C67.171 37.2831 66.593 37.9461 65.896 38.3881C65.284 38.7961 64.553 39.0681 63.805 39.1531ZM63.04 35.0051C63.601 35.3111 64.213 34.8691 64.519 34.3251C64.961 33.5771 65.097 32.6251 64.961 31.7751C64.893 31.3671 64.757 30.9591 64.502 30.6191C64.366 30.4321 64.145 30.2451 63.907 30.1941C63.669 30.1261 63.397 30.1941 63.193 30.3471C62.224 30.9931 61.952 32.8461 62.309 33.9511C62.445 34.3591 62.666 34.8011 63.04 35.0051ZM73.5975 38.9151C73.0705 39.1191 72.4075 39.1021 71.8805 38.8641C71.3195 38.6091 70.8605 38.1161 70.5545 37.6061C70.1125 36.8581 69.9765 35.9231 69.9255 35.0561C69.8745 33.9341 69.9595 32.7951 70.1125 31.6731C70.2315 30.6871 70.4015 29.7181 70.6905 28.7831C70.7245 28.6981 70.8095 28.3921 70.8945 28.3241C71.0135 28.0181 71.2515 27.7461 71.5235 27.5251C71.9995 27.1341 72.5605 26.8281 73.1555 26.6921C74.2775 26.4541 75.4675 26.4201 76.5895 26.6411C77.8135 26.8791 79.1055 27.4571 79.9045 28.4431C80.2785 28.9021 80.5505 29.4631 80.6525 30.0411C80.7545 30.6871 80.6185 31.3841 80.3125 31.9451C80.1085 32.3531 79.8195 32.7441 79.4625 33.0501C79.1225 33.3561 78.7145 33.5771 78.3235 33.7981C78.9525 34.3761 79.7345 34.7161 80.4485 35.1751C80.7375 35.3621 80.9925 35.6341 81.1455 35.9571C81.5705 36.8581 81.0945 38.0481 80.2105 38.5241C79.8535 38.7281 79.3775 38.7791 78.9695 38.7281C78.4085 38.6601 77.8815 38.3881 77.4055 38.0821C76.3515 37.3681 75.5865 36.2631 74.9235 35.1921C75.0595 35.8891 75.0765 36.6371 74.9065 37.3171C74.7875 37.7421 74.6005 38.1501 74.2945 38.4561C74.1075 38.6601 73.8695 38.8131 73.5975 38.9151ZM75.3825 31.9791C75.8415 32.1661 76.5725 31.9451 76.8785 31.5541C77.0315 31.3501 77.0995 31.0611 77.0485 30.8231C76.9635 30.3981 76.5725 30.0581 76.1985 29.8711C75.9945 29.7861 75.7565 29.7181 75.5355 29.7691C74.9405 29.9391 74.7025 30.8061 74.7705 31.4351C74.9235 31.6561 75.1275 31.8771 75.3825 31.9791ZM86.1661 38.7621C85.4691 39.1701 84.5851 39.1701 83.9391 38.7451C83.5481 38.4901 83.2591 38.0821 83.0721 37.6571C82.6811 36.8071 82.6131 35.8211 82.5791 34.8691C82.5451 33.7981 82.5621 32.7101 82.5961 31.6391C82.6301 30.7041 82.6301 29.7521 82.8171 28.8341C82.9871 28.0351 83.5141 27.2191 84.2621 26.8621C85.0951 26.4541 86.3191 26.6071 86.8291 27.3891C87.0331 27.6951 87.1011 28.0691 87.1351 28.4431C87.2031 29.0721 87.1691 29.7011 87.1521 30.3131C87.7811 29.3781 88.5291 28.4941 89.4131 27.7801C89.9401 27.3721 90.5181 26.9811 91.1641 26.8281C91.5551 26.7601 91.9801 26.8111 92.3371 26.9641C93.0681 27.3041 93.9181 28.4601 93.8841 29.2761C93.8671 29.9391 93.4591 30.6191 92.9491 31.0441C92.2521 31.6391 91.3681 31.9791 90.5011 32.2511C90.3991 32.2851 90.1781 32.5401 90.1101 32.6081C90.0591 32.6761 90.1271 32.8631 90.1441 32.9481C90.2631 33.3221 90.5351 33.6451 90.8241 33.9171C91.1641 34.2741 91.5721 34.5631 91.9801 34.8351C92.3031 35.0391 92.6431 35.2431 92.9321 35.5151C93.1531 35.7531 93.3401 36.0591 93.3911 36.3821C93.4421 36.6541 93.4081 36.9431 93.3231 37.1981C93.1531 37.7251 92.7621 38.2011 92.2861 38.4901C90.5691 39.5781 88.7671 37.8101 87.7641 36.0421C87.6621 36.4671 87.5431 36.8921 87.3731 37.3001C87.1181 37.8781 86.7101 38.4221 86.1661 38.7621ZM108.304 38.8301C107.964 38.9831 107.556 39.0001 107.199 38.9321C106.757 38.8471 106.332 38.5921 105.975 38.3201C105.431 37.8951 104.989 37.3511 104.564 36.8071C103.952 36.0251 103.459 35.1411 103.017 34.2571C102.983 35.3281 102.966 36.4161 102.728 37.4701C102.626 37.8951 102.456 38.3541 102.15 38.6601C101.98 38.8131 101.776 38.9151 101.555 38.9491C100.501 39.1361 99.7191 38.0481 99.4981 36.9941C99.3281 36.1611 99.3791 35.2941 99.3451 34.4271C99.3281 33.8151 99.3791 30.3981 99.4131 29.7861C99.4471 29.1741 99.5321 28.5621 99.7701 28.0181C99.9741 27.5421 100.297 27.0831 100.756 26.8281C101.181 26.6071 101.776 26.5901 102.218 26.7941C102.745 27.0151 103.187 27.4061 103.527 27.8651C104.156 28.6641 104.649 29.5651 105.125 30.4661C105.465 31.1291 105.805 31.7751 106.128 32.4381C106.094 31.4351 106.128 30.4321 106.247 29.4461C106.298 28.9361 106.434 28.4431 106.638 27.9841C106.808 27.6101 107.063 27.2361 107.386 26.9981C107.726 26.7261 108.236 26.5901 108.661 26.7091C108.933 26.7941 109.171 26.9811 109.358 27.2021C109.868 27.8481 110.106 28.6981 110.208 29.5141C110.446 31.2311 110.378 32.9991 110.191 34.7331C110.106 35.6001 110.004 36.5011 109.681 37.3001C109.409 37.9291 108.933 38.5411 108.304 38.8301ZM117.593 39.1531C116.692 39.2381 115.757 39.1021 114.907 38.8131C113.904 38.4731 113.003 37.6911 112.425 36.8071C112.187 36.4331 111.949 36.0421 111.813 35.6171C111.456 34.5631 111.456 33.4071 111.575 32.3191C111.711 31.0951 112.255 29.8881 112.986 28.8681C113.496 28.1711 114.159 27.5251 114.924 27.0831C115.621 26.6581 116.471 26.4371 117.287 26.4371C118.086 26.4541 118.885 26.5901 119.633 26.8281C120.381 27.0831 121.027 27.6951 121.486 28.3411C121.843 28.8341 122.081 29.4461 122.217 30.0581C122.421 30.9251 122.472 31.8091 122.455 32.6931C122.421 34.0361 122.064 35.4301 121.367 36.5691C120.959 37.2831 120.381 37.9461 119.684 38.3881C119.072 38.7961 118.341 39.0681 117.593 39.1531ZM116.828 35.0051C117.389 35.3111 118.001 34.8691 118.307 34.3251C118.749 33.5771 118.885 32.6251 118.749 31.7751C118.681 31.3671 118.545 30.9591 118.29 30.6191C118.154 30.4321 117.933 30.2451 117.695 30.1941C117.457 30.1261 117.185 30.1941 116.981 30.3471C116.012 30.9931 115.74 32.8461 116.097 33.9511C116.233 34.3591 116.454 34.8011 116.828 35.0051ZM128.901 39.1021C128.459 39.2211 127.949 39.2381 127.49 39.1361C127.439 39.1191 127.099 39.0511 127.031 39.0341C126.487 38.8641 126.028 38.4391 125.671 37.9971C125.195 37.4191 124.787 36.7561 124.481 36.0591C124.107 35.1751 123.886 34.2231 123.716 33.2711C123.563 32.2681 123.478 31.2311 123.529 30.1941C123.563 29.4291 123.733 28.6131 124.158 27.9671C124.532 27.3891 125.144 26.8961 125.824 26.7431C126.47 26.5901 127.167 26.7941 127.66 27.2701C128.085 27.6611 128.34 28.2391 128.51 28.7831C128.918 30.2621 128.731 31.8601 128.731 33.3901C128.731 33.7301 128.765 34.0701 128.867 34.3931C128.901 34.4781 128.969 34.6481 129.071 34.6481C129.173 34.6481 129.292 34.4781 129.326 34.3931C129.479 34.0871 129.547 33.7471 129.598 33.4241C129.751 32.6081 129.7 31.7581 129.785 30.9421C129.819 30.4661 129.938 29.9731 130.159 29.5481C130.499 28.8851 131.281 28.4601 132.012 28.5281C132.301 28.5451 132.573 28.6811 132.777 28.8851C133.032 29.1401 133.219 29.4631 133.355 29.8031C133.593 30.3981 133.661 31.0441 133.712 31.6731C133.763 32.4041 133.78 33.1691 133.746 33.9001C133.746 34.0021 133.865 34.2911 133.933 34.3761C133.984 34.4441 134.086 34.5291 134.171 34.5121C134.358 34.5121 134.562 34.2061 134.63 34.0361C134.8 33.6451 134.885 33.2201 134.953 32.7781C135.055 32.2171 135.106 31.6561 135.14 31.0951C135.191 30.4321 135.174 29.7521 135.293 29.1061C135.361 28.6811 135.514 28.2561 135.769 27.8821C136.5 26.7941 138.013 26.4711 139.05 27.2871C139.577 27.7121 139.968 28.3241 140.206 28.9531C140.614 30.0071 140.631 31.2141 140.41 32.3191C140.138 33.7641 139.611 35.1751 138.897 36.4501C138.54 37.0961 138.081 37.6741 137.537 38.1671C137.146 38.5071 136.704 38.8131 136.211 38.9661C135.922 39.0681 135.599 39.0681 135.293 39.0171C134.256 38.8811 133.304 38.3541 132.607 37.5381C132.267 37.1471 132.012 36.6881 131.808 36.2121C131.485 36.8921 131.043 37.5211 130.533 38.0651C130.091 38.5241 129.53 38.9151 128.901 39.1021Z" fill="black"/>
</svg>
