<svg width="1104" height="332" viewBox="0 0 1104 332" fill="none" xmlns="http://www.w3.org/2000/svg">
<path d="M105.674 326.683C88.5527 331.951 68.7977 331.512 52.1157 324.488C43.3357 320.976 35.4337 315.269 28.8487 308.245C18.3127 296.392 12.1667 281.027 8.2157 265.662C1.1917 239.322 0.752695 211.226 2.5087 184.447C4.7037 150.644 9.0937 116.402 20.5077 84.794C27.9707 62.844 38.5067 40.894 55.6277 25.09C66.1637 14.993 81.9677 8.84697 96.8937 7.96899C98.2107 7.96899 104.796 7.091 106.113 7.091C117.088 5.77399 128.502 6.21298 139.477 6.21298C154.403 6.21298 170.207 7.96899 184.255 13.237C198.303 18.944 211.034 27.724 221.131 38.699C236.496 55.381 246.593 77.77 250.544 99.72C254.495 124.743 250.983 151.522 240.886 174.35C235.179 188.398 225.521 202.007 212.351 209.47C195.669 219.128 176.353 226.152 156.598 226.591C147.379 226.591 137.721 225.713 128.502 222.64C132.892 241.078 137.282 260.394 135.965 279.71C135.087 292.002 132.453 305.172 124.112 314.391C119.283 320.098 112.698 324.488 105.674 326.683ZM133.77 142.303C138.16 147.132 145.184 151.083 151.33 150.205C160.549 148.888 174.597 137.913 177.67 129.133C179.865 122.987 179.426 115.085 176.792 108.939C173.28 101.476 166.695 95.33 159.671 91.379C154.403 88.306 146.062 87.867 141.233 91.379C136.404 95.33 133.331 101.476 131.575 107.622C128.941 116.841 128.941 126.499 129.819 136.157C130.258 137.474 132.892 140.986 133.77 142.303ZM452.882 328.878C424.347 330.195 395.812 330.195 367.716 325.366C349.717 322.293 331.718 315.269 318.109 303.416C297.476 285.417 283.867 257.76 279.916 230.103C275.087 201.129 276.404 170.838 280.794 141.425C284.306 115.085 290.013 88.745 301.866 65.039C309.329 50.991 319.426 37.821 331.279 26.846C338.303 20.261 346.205 14.554 355.424 11.481C365.521 7.52999 376.935 7.96899 387.471 5.77399C404.153 2.70098 421.274 2.70098 437.956 1.82299C464.296 0.066983 492.392 0.944972 515.659 12.798C521.366 15.871 526.634 20.7 530.585 26.407C534.975 33.431 537.17 41.772 537.609 50.552C539.365 76.892 521.805 102.793 495.465 102.354C488.002 102.354 480.1 100.598 473.076 98.403C459.467 94.891 445.858 90.501 431.81 88.745C420.396 87.867 407.665 89.184 398.446 96.208C394.495 99.281 391.422 104.549 391.422 109.817C391.861 114.207 396.69 114.207 401.08 113.768C414.689 112.012 427.42 107.183 441.029 105.866C449.37 104.988 458.15 104.549 466.052 107.183C473.076 110.256 479.661 115.963 482.734 122.987C486.685 132.645 488.002 143.181 487.124 153.278C486.685 162.936 484.051 173.472 477.905 180.935C473.954 186.203 468.686 190.154 462.54 192.788C455.955 195.422 448.931 195.861 441.468 196.3C430.493 196.739 398.885 191.91 390.983 199.812C382.642 207.714 393.617 220.006 405.031 222.64C416.445 224.835 428.737 221.762 440.151 219.128C456.833 215.616 474.393 211.226 491.075 214.299C504.245 216.055 517.854 223.518 524.878 234.054C530.585 242.834 531.902 254.687 529.707 264.784C525.756 284.1 515.22 303.855 499.855 316.147C487.124 326.244 469.125 328.439 452.882 328.878ZM670.286 326.683C653.165 331.951 633.41 331.512 616.728 324.488C607.948 320.976 600.046 315.269 593.461 308.245C582.925 296.392 576.779 281.027 572.828 265.662C565.804 239.322 565.365 211.226 567.121 184.447C569.316 150.644 573.706 116.402 585.12 84.794C592.583 62.844 603.119 40.894 620.24 25.09C630.776 14.993 646.58 8.84697 661.506 7.96899C662.823 7.96899 669.408 7.091 670.725 7.091C681.7 5.77399 693.114 6.21298 704.089 6.21298C719.015 6.21298 734.819 7.96899 748.867 13.237C762.915 18.944 775.646 27.724 785.743 38.699C801.108 55.381 811.205 77.77 815.156 99.72C819.107 124.743 815.595 151.522 805.498 174.35C799.791 188.398 790.133 202.007 776.963 209.47C760.281 219.128 740.965 226.152 721.21 226.591C711.991 226.591 702.333 225.713 693.114 222.64C697.504 241.078 701.894 260.394 700.577 279.71C699.699 292.002 697.065 305.172 688.724 314.391C683.895 320.098 677.31 324.488 670.286 326.683ZM698.382 142.303C702.772 147.132 709.796 151.083 715.942 150.205C725.161 148.888 739.209 137.913 742.282 129.133C744.477 122.987 744.038 115.085 741.404 108.939C737.892 101.476 731.307 95.33 724.283 91.379C719.015 88.306 710.674 87.867 705.845 91.379C701.016 95.33 697.943 101.476 696.187 107.622C693.553 116.841 693.553 126.499 694.431 136.157C694.87 137.474 697.504 140.986 698.382 142.303ZM1017.49 328.878C988.959 330.195 960.424 330.195 932.328 325.366C914.329 322.293 896.33 315.269 882.721 303.416C862.088 285.417 848.479 257.76 844.528 230.103C839.699 201.129 841.016 170.838 845.406 141.425C848.918 115.085 854.625 88.745 866.478 65.039C873.941 50.991 884.038 37.821 895.891 26.846C902.915 20.261 910.817 14.554 920.036 11.481C930.133 7.52999 941.547 7.96899 952.083 5.77399C968.765 2.70098 985.886 2.70098 1002.57 1.82299C1028.91 0.066983 1057 0.944972 1080.27 12.798C1085.98 15.871 1091.25 20.7 1095.2 26.407C1099.59 33.431 1101.78 41.772 1102.22 50.552C1103.98 76.892 1086.42 102.793 1060.08 102.354C1052.61 102.354 1044.71 100.598 1037.69 98.403C1024.08 94.891 1010.47 90.501 996.422 88.745C985.008 87.867 972.277 89.184 963.058 96.208C959.107 99.281 956.034 104.549 956.034 109.817C956.473 114.207 961.302 114.207 965.692 113.768C979.301 112.012 992.032 107.183 1005.64 105.866C1013.98 104.988 1022.76 104.549 1030.66 107.183C1037.69 110.256 1044.27 115.963 1047.35 122.987C1051.3 132.645 1052.61 143.181 1051.74 153.278C1051.3 162.936 1048.66 173.472 1042.52 180.935C1038.57 186.203 1033.3 190.154 1027.15 192.788C1020.57 195.422 1013.54 195.861 1006.08 196.3C995.105 196.739 963.497 191.91 955.595 199.812C947.254 207.714 958.229 220.006 969.643 222.64C981.057 224.835 993.349 221.762 1004.76 219.128C1021.44 215.616 1039 211.226 1055.69 214.299C1068.86 216.055 1082.47 223.518 1089.49 234.054C1095.2 242.834 1096.51 254.687 1094.32 264.784C1090.37 284.1 1079.83 303.855 1064.47 316.147C1051.74 326.244 1033.74 328.439 1017.49 328.878Z" fill="white"/>
<path d="M105.674 326.683L105.968 327.639L105.972 327.637L105.674 326.683ZM52.1157 324.488L52.5038 323.566L52.4955 323.563L52.4871 323.56L52.1157 324.488ZM28.8487 308.245L28.1013 308.909L28.1101 308.919L28.1192 308.929L28.8487 308.245ZM8.2157 265.662L9.18423 265.413L9.18193 265.404L8.2157 265.662ZM2.5087 184.447L3.50655 184.512L3.50659 184.512L2.5087 184.447ZM20.5077 84.794L21.4482 85.1336L21.4514 85.1248L21.4545 85.1159L20.5077 84.794ZM55.6277 25.09L56.306 25.8248L56.3129 25.8184L56.3196 25.812L55.6277 25.09ZM96.8937 7.96899V6.96899H96.8643L96.835 6.97071L96.8937 7.96899ZM106.113 7.091V8.091H106.172L106.232 8.08387L106.113 7.091ZM184.255 13.237L184.631 12.3105L184.619 12.3054L184.606 12.3007L184.255 13.237ZM221.131 38.699L220.395 39.376L220.395 39.3765L221.131 38.699ZM250.544 99.72L251.531 99.564L251.53 99.5534L251.528 99.5428L250.544 99.72ZM240.886 174.35L239.971 173.945L239.965 173.959L239.959 173.974L240.886 174.35ZM212.351 209.47L211.858 208.6L211.85 208.605L212.351 209.47ZM156.598 226.591V227.591H156.609L156.62 227.591L156.598 226.591ZM128.502 222.64L128.818 221.691L127.113 221.123L127.529 222.872L128.502 222.64ZM135.965 279.71L136.962 279.781L136.962 279.778L135.965 279.71ZM124.112 314.391L123.37 313.72L123.359 313.732L123.348 313.745L124.112 314.391ZM133.77 142.303L132.938 142.858L132.979 142.92L133.03 142.976L133.77 142.303ZM151.33 150.205L151.188 149.215L151.33 150.205ZM177.67 129.133L176.728 128.797L176.726 128.803L177.67 129.133ZM176.792 108.939L177.711 108.545L177.704 108.529L177.697 108.513L176.792 108.939ZM159.671 91.379L159.167 92.2428L159.174 92.2467L159.18 92.2506L159.671 91.379ZM141.233 91.379L140.645 90.5703L140.622 90.587L140.599 90.605L141.233 91.379ZM131.575 107.622L130.613 107.347L131.575 107.622ZM129.819 136.157L128.823 136.248L128.833 136.363L128.87 136.473L129.819 136.157ZM105.38 325.727C88.4635 330.932 68.9514 330.492 52.5038 323.566L51.7276 325.41C68.644 332.532 88.6419 332.97 105.968 327.639L105.38 325.727ZM52.4871 323.56C43.8607 320.109 36.0771 314.493 29.5782 307.561L28.1192 308.929C34.7903 316.045 42.8107 321.843 51.7443 325.416L52.4871 323.56ZM29.5961 307.581C19.2111 295.897 13.117 280.707 9.18419 265.413L7.2472 265.911C11.2164 281.347 17.4143 296.887 28.1013 308.909L29.5961 307.581ZM9.18193 265.404C2.1986 239.217 1.75356 211.246 3.50655 184.512L1.51084 184.382C-0.24817 211.206 0.184797 239.427 7.24946 265.92L9.18193 265.404ZM3.50659 184.512C5.69948 150.741 10.0819 116.61 21.4482 85.1336L19.5671 84.4543C8.10548 116.194 3.70791 150.547 1.5108 184.382L3.50659 184.512ZM21.4545 85.1159C28.8972 63.2255 39.366 41.4616 56.306 25.8248L54.9494 24.3552C37.6474 40.3263 27.0442 62.4625 19.5609 84.4721L21.4545 85.1159ZM56.3196 25.812C66.66 15.9025 82.228 9.83339 96.9524 8.96726L96.835 6.97071C81.7074 7.86056 65.6675 14.0835 54.9358 24.368L56.3196 25.812ZM96.8937 8.96899C97.6246 8.96899 99.6838 8.73829 101.614 8.52388C103.635 8.2993 105.527 8.091 106.113 8.091V6.091C105.382 6.091 103.323 6.32169 101.393 6.53611C99.3716 6.76068 97.4798 6.96899 96.8937 6.96899V8.96899ZM106.232 8.08387C117.129 6.77623 128.447 7.21298 139.477 7.21298V5.21298C128.556 5.21298 117.047 4.77174 105.994 6.09812L106.232 8.08387ZM139.477 7.21298C154.336 7.21298 170.008 8.96264 183.904 14.1733L184.606 12.3007C170.405 6.97533 154.47 5.21298 139.477 5.21298V7.21298ZM183.878 14.1635C197.792 19.8161 210.4 28.512 220.395 39.376L221.867 38.0219C211.668 26.936 198.813 18.0719 184.631 12.3105L183.878 14.1635ZM220.395 39.3765C235.614 55.9001 245.637 78.1076 249.56 99.8971L251.528 99.5428C247.548 77.4324 237.377 54.8619 221.866 38.0215L220.395 39.3765ZM249.556 99.8759C253.477 124.71 249.99 151.294 239.971 173.945L241.8 174.755C251.975 151.75 255.512 124.776 251.531 99.564L249.556 99.8759ZM239.959 173.974C234.305 187.892 224.769 201.284 211.858 208.6L212.844 210.34C226.273 202.73 236.052 188.904 241.812 174.726L239.959 173.974ZM211.85 208.605C195.265 218.206 176.114 225.157 156.575 225.591L156.62 227.591C176.591 227.147 196.072 220.05 212.852 210.335L211.85 208.605ZM156.598 225.591C147.436 225.591 137.896 224.717 128.818 221.691L128.185 223.589C137.545 226.709 147.321 227.591 156.598 227.591V225.591ZM127.529 222.872C131.923 241.327 136.272 260.5 134.967 279.642L136.962 279.778C138.291 260.288 133.86 240.829 129.475 222.408L127.529 222.872ZM134.967 279.639C134.092 291.886 131.474 304.763 123.37 313.72L124.853 315.062C133.431 305.581 136.081 292.118 136.962 279.781L134.967 279.639ZM123.348 313.745C118.64 319.31 112.215 323.591 105.375 325.729L105.972 327.637C113.18 325.385 119.926 320.886 124.875 315.037L123.348 313.745ZM133.03 142.976C135.306 145.479 138.262 147.754 141.457 149.295C144.646 150.833 148.143 151.67 151.471 151.195L151.188 149.215C148.371 149.618 145.282 148.919 142.326 147.493C139.375 146.071 136.624 143.956 134.51 141.63L133.03 142.976ZM151.471 151.195C156.333 150.5 162.315 147.306 167.426 143.251C172.532 139.199 176.985 134.116 178.614 129.463L176.726 128.803C175.281 132.93 171.174 137.724 166.183 141.684C161.197 145.641 155.546 148.593 151.188 149.215L151.471 151.195ZM178.611 129.469C180.899 123.065 180.435 114.902 177.711 108.545L175.873 109.333C178.416 115.268 178.831 122.909 176.728 128.797L178.611 129.469ZM177.697 108.513C174.076 100.819 167.319 94.534 160.161 90.5074L159.18 92.2506C166.07 96.126 172.484 102.133 175.887 109.365L177.697 108.513ZM160.175 90.5152C157.374 88.8814 153.799 87.9671 150.303 87.9097C146.814 87.8525 143.287 88.6486 140.645 90.5703L141.821 92.1877C144.008 90.5974 147.065 89.8569 150.271 89.9095C153.47 89.9619 156.7 90.8036 159.167 92.2428L160.175 90.5152ZM140.599 90.605C135.55 94.7364 132.398 101.101 130.613 107.347L132.536 107.897C134.264 101.851 137.257 95.9236 141.866 92.1529L140.599 90.605ZM130.613 107.347C127.93 116.739 127.94 126.54 128.823 136.248L130.815 136.066C129.941 126.458 129.952 116.943 132.536 107.897L130.613 107.347ZM128.87 136.473C129.018 136.917 129.317 137.466 129.641 138.004C129.978 138.562 130.388 139.184 130.803 139.793C131.672 141.067 132.485 142.179 132.938 142.858L134.602 141.748C134.176 141.11 133.234 139.807 132.456 138.667C132.048 138.069 131.663 137.483 131.354 136.972C131.034 136.439 130.839 136.056 130.767 135.841L128.87 136.473ZM452.882 328.878L452.855 327.878L452.845 327.879L452.835 327.879L452.882 328.878ZM367.716 325.366L367.885 324.38L367.884 324.38L367.716 325.366ZM318.109 303.416L317.451 304.17L317.452 304.17L318.109 303.416ZM279.916 230.103L280.905 229.962L280.904 229.95L280.902 229.939L279.916 230.103ZM280.794 141.425L281.783 141.573L281.784 141.565L281.785 141.557L280.794 141.425ZM301.866 65.039L300.982 64.5698L300.977 64.5807L300.971 64.5918L301.866 65.039ZM331.279 26.846L331.958 27.5798L331.962 27.5755L331.279 26.846ZM355.424 11.481L355.74 12.4297L355.764 12.4216L355.788 12.4122L355.424 11.481ZM387.471 5.77399L387.289 4.79053L387.278 4.79264L387.267 4.79501L387.471 5.77399ZM437.956 1.82299L438.008 2.8217L438.022 2.82077L437.956 1.82299ZM515.659 12.798L516.133 11.9175L516.123 11.9121L516.112 11.9069L515.659 12.798ZM530.585 26.407L531.433 25.877L531.42 25.8571L531.407 25.8378L530.585 26.407ZM537.609 50.552L536.61 50.6019L536.61 50.6102L536.611 50.6185L537.609 50.552ZM495.465 102.354L495.481 101.354L495.473 101.354H495.465V102.354ZM473.076 98.403L473.374 97.4485L473.35 97.441L473.325 97.4347L473.076 98.403ZM431.81 88.745L431.934 87.7527L431.91 87.7498L431.886 87.7479L431.81 88.745ZM398.446 96.208L397.839 95.4125L397.832 95.4186L398.446 96.208ZM391.422 109.817H390.422V109.867L390.427 109.917L391.422 109.817ZM401.08 113.768L401.179 114.763L401.193 114.762L401.208 114.76L401.08 113.768ZM441.029 105.866L441.125 106.861L441.133 106.86L441.029 105.866ZM466.052 107.183L466.452 106.267L466.411 106.249L466.368 106.234L466.052 107.183ZM482.734 122.987L483.659 122.608L483.655 122.597L483.65 122.586L482.734 122.987ZM487.124 153.278L486.127 153.191L486.126 153.212L486.125 153.233L487.124 153.278ZM477.905 180.935L477.133 180.299L477.118 180.317L477.105 180.335L477.905 180.935ZM462.54 192.788L462.911 193.716L462.922 193.712L462.933 193.707L462.54 192.788ZM441.468 196.3L441.508 197.299L441.517 197.299L441.526 197.298L441.468 196.3ZM390.983 199.812L391.67 200.538L391.68 200.529L391.69 200.519L390.983 199.812ZM405.031 222.64L404.806 223.614L404.824 223.619L404.842 223.622L405.031 222.64ZM440.151 219.128L439.945 218.149L439.935 218.151L439.926 218.154L440.151 219.128ZM491.075 214.299L490.893 215.282L490.918 215.287L490.942 215.29L491.075 214.299ZM524.878 234.054L525.716 233.509L525.71 233.499L524.878 234.054ZM529.707 264.784L528.729 264.572L528.727 264.584L529.707 264.784ZM499.855 316.147L500.476 316.931L500.479 316.928L499.855 316.147ZM452.835 327.879C424.325 329.195 395.875 329.191 367.885 324.38L367.546 326.352C395.749 331.199 424.368 331.195 452.928 329.877L452.835 327.879ZM367.884 324.38C350.011 321.329 332.199 314.362 318.765 302.662L317.452 304.17C331.236 316.176 349.422 323.257 367.547 326.352L367.884 324.38ZM318.766 302.662C298.338 284.842 284.827 257.416 280.905 229.962L278.926 230.244C282.906 258.104 296.613 285.992 317.451 304.17L318.766 302.662ZM280.902 229.939C276.096 201.101 277.402 170.921 281.783 141.573L279.805 141.277C275.405 170.755 274.077 201.157 278.929 230.267L280.902 229.939ZM281.785 141.557C285.291 115.262 290.979 89.0479 302.76 65.4862L300.971 64.5918C289.046 88.4421 283.32 114.908 279.802 141.293L281.785 141.557ZM302.749 65.5081C310.159 51.5587 320.188 38.4782 331.958 27.5797L330.599 26.1122C318.663 37.1638 308.498 50.4233 300.982 64.5698L302.749 65.5081ZM331.962 27.5755C338.93 21.0438 346.709 15.4399 355.74 12.4297L355.107 10.5323C345.7 13.6681 337.675 19.4781 330.595 26.1164L331.962 27.5755ZM355.788 12.4122C360.713 10.4849 365.987 9.61821 371.403 8.96172C376.78 8.30993 382.351 7.862 387.674 6.75297L387.267 4.79501C382.054 5.88097 376.65 6.31105 371.162 6.97626C365.713 7.63677 360.231 8.52608 355.059 10.5498L355.788 12.4122ZM387.652 6.75744C404.249 3.70004 421.255 3.70335 438.008 2.8216L437.903 0.824368C421.292 1.6986 404.056 1.70191 387.289 4.79053L387.652 6.75744ZM438.022 2.82077C464.328 1.06705 492.192 1.96538 515.205 13.689L516.112 11.9069C492.592 -0.0754356 464.263 -0.933088 437.889 0.825201L438.022 2.82077ZM515.184 13.6784C520.74 16.67 525.893 21.387 529.762 26.9762L531.407 25.8378C527.374 20.013 521.991 15.0719 516.133 11.9175L515.184 13.6784ZM529.737 26.937C534.017 33.7857 536.177 41.952 536.61 50.6019L538.607 50.502C538.162 41.592 535.932 33.0763 531.433 25.877L529.737 26.937ZM536.611 50.6185C538.342 76.5913 521.039 101.78 495.481 101.354L495.448 103.354C522.57 103.806 540.387 77.1927 538.606 50.4855L536.611 50.6185ZM495.465 101.354C488.144 101.354 480.351 99.6289 473.374 97.4485L472.777 99.3575C479.848 101.567 487.859 103.354 495.465 103.354V101.354ZM473.325 97.4347C459.794 93.9428 446.066 89.5193 431.934 87.7527L431.686 89.7373C445.649 91.4827 459.139 95.8392 472.826 99.3713L473.325 97.4347ZM431.886 87.7479C420.386 86.8633 407.351 88.1656 397.84 95.4126L399.052 97.0034C407.978 90.2024 420.405 88.8706 431.733 89.7421L431.886 87.7479ZM397.832 95.4186C393.681 98.6468 390.422 104.189 390.422 109.817H392.422C392.422 104.909 395.308 99.9152 399.059 96.9974L397.832 95.4186ZM390.427 109.917C390.556 111.207 391.019 112.247 391.775 113.039C392.52 113.819 393.484 114.289 394.506 114.568C396.514 115.116 398.988 114.982 401.179 114.763L400.98 112.773C398.781 112.993 396.645 113.079 395.032 112.639C394.243 112.423 393.643 112.098 393.222 111.657C392.812 111.228 392.507 110.622 392.417 109.717L390.427 109.917ZM401.208 114.76C408.077 113.873 414.72 112.212 421.289 110.624C427.877 109.032 434.399 107.512 441.125 106.861L440.932 104.871C434.049 105.537 427.401 107.09 420.819 108.68C414.218 110.276 407.691 111.907 400.952 112.776L401.208 114.76ZM441.133 106.86C449.465 105.983 458.055 105.572 465.735 108.132L466.368 106.234C458.244 103.526 449.274 103.993 440.924 104.871L441.133 106.86ZM465.651 108.099C472.498 111.095 478.867 116.643 481.817 123.388L483.65 122.586C480.454 115.283 473.653 109.417 466.452 106.267L465.651 108.099ZM481.808 123.366C485.693 132.862 486.993 143.236 486.127 153.191L488.12 153.365C489.01 143.126 487.676 132.428 483.659 122.608L481.808 123.366ZM486.125 153.233C485.691 162.777 483.088 173.068 477.133 180.299L478.676 181.571C485.013 173.876 487.678 163.095 488.122 153.323L486.125 153.233ZM477.105 180.335C473.269 185.449 468.147 189.297 462.146 191.869L462.933 193.707C469.224 191.011 474.638 186.957 478.705 181.535L477.105 180.335ZM462.168 191.86C455.758 194.423 448.899 194.861 441.409 195.302L441.526 197.298C448.962 196.861 456.151 196.421 462.911 193.716L462.168 191.86ZM441.428 195.301C438.744 195.408 434.767 195.193 430.118 194.924C425.494 194.657 420.245 194.34 415.089 194.257C409.938 194.175 404.836 194.325 400.506 195.003C396.223 195.675 392.489 196.891 390.275 199.105L391.69 200.519C393.427 198.782 396.607 197.639 400.816 196.979C404.978 196.327 409.946 196.175 415.057 196.257C420.162 196.339 425.367 196.653 430.003 196.921C434.614 197.187 438.704 197.411 441.508 197.299L441.428 195.301ZM390.295 199.086C388.018 201.243 387.015 203.758 387.054 206.357C387.092 208.923 388.141 211.476 389.784 213.782C393.06 218.38 398.871 222.245 404.806 223.614L405.255 221.666C399.776 220.401 394.393 216.803 391.413 212.621C389.928 210.537 389.084 208.371 389.053 206.327C389.024 204.317 389.777 202.332 391.67 200.538L390.295 199.086ZM404.842 223.622C416.507 225.865 429.029 222.721 440.375 220.102L439.926 218.154C428.444 220.803 416.382 223.805 405.219 221.658L404.842 223.622ZM440.357 220.107C457.121 216.577 474.451 212.254 490.893 215.282L491.256 213.316C474.334 210.198 456.544 214.655 439.945 218.149L440.357 220.107ZM490.942 215.29C503.882 217.016 517.21 224.355 524.045 234.609L525.71 233.499C518.498 222.681 504.607 215.094 491.207 213.308L490.942 215.29ZM524.039 234.599C529.572 243.111 530.88 254.68 528.729 264.572L530.684 264.996C532.923 254.694 531.597 242.557 525.716 233.509L524.039 234.599ZM528.727 264.584C524.813 283.718 514.378 303.248 499.23 315.366L500.479 316.928C516.061 304.462 526.698 284.482 530.686 264.984L528.727 264.584ZM499.233 315.363C486.782 325.239 469.085 327.44 452.855 327.878L452.909 329.878C469.164 329.438 487.465 327.249 500.476 316.931L499.233 315.363ZM670.286 326.683L670.58 327.639L670.584 327.637L670.286 326.683ZM616.728 324.488L617.116 323.566L617.108 323.563L617.099 323.56L616.728 324.488ZM593.461 308.245L592.714 308.909L592.722 308.919L592.731 308.929L593.461 308.245ZM572.828 265.662L573.797 265.413L573.794 265.404L572.828 265.662ZM567.121 184.447L568.119 184.512L568.119 184.512L567.121 184.447ZM585.12 84.794L586.061 85.1336L586.064 85.1248L586.067 85.1159L585.12 84.794ZM620.24 25.09L620.918 25.8248L620.925 25.8184L620.932 25.812L620.24 25.09ZM661.506 7.96899V6.96899H661.477L661.447 6.97071L661.506 7.96899ZM670.725 7.091V8.091H670.785L670.844 8.08387L670.725 7.091ZM748.867 13.237L749.243 12.3105L749.231 12.3054L749.218 12.3007L748.867 13.237ZM785.743 38.699L785.007 39.376L785.007 39.3765L785.743 38.699ZM815.156 99.72L816.144 99.564L816.142 99.5534L816.14 99.5428L815.156 99.72ZM805.498 174.35L804.583 173.945L804.577 173.959L804.572 173.974L805.498 174.35ZM776.963 209.47L776.47 208.6L776.462 208.605L776.963 209.47ZM721.21 226.591V227.591H721.221L721.232 227.591L721.21 226.591ZM693.114 222.64L693.43 221.691L691.725 221.123L692.141 222.872L693.114 222.64ZM700.577 279.71L701.574 279.781L701.575 279.778L700.577 279.71ZM688.724 314.391L687.982 313.72L687.971 313.732L687.961 313.745L688.724 314.391ZM698.382 142.303L697.55 142.858L697.592 142.92L697.642 142.976L698.382 142.303ZM715.942 150.205L715.801 149.215L715.942 150.205ZM742.282 129.133L741.34 128.797L741.338 128.803L742.282 129.133ZM741.404 108.939L742.323 108.545L742.316 108.529L742.309 108.513L741.404 108.939ZM724.283 91.379L723.779 92.2428L723.786 92.2467L723.793 92.2506L724.283 91.379ZM705.845 91.379L705.257 90.5703L705.234 90.587L705.212 90.605L705.845 91.379ZM696.187 107.622L695.225 107.347L696.187 107.622ZM694.431 136.157L693.435 136.248L693.446 136.363L693.482 136.473L694.431 136.157ZM669.992 325.727C653.076 330.932 633.564 330.492 617.116 323.566L616.34 325.41C633.256 332.532 653.254 332.97 670.58 327.639L669.992 325.727ZM617.099 323.56C608.473 320.109 600.689 314.493 594.191 307.561L592.731 308.929C599.403 316.045 607.423 321.843 616.357 325.416L617.099 323.56ZM594.208 307.581C583.823 295.897 577.729 280.707 573.797 265.413L571.859 265.911C575.829 281.347 582.027 296.887 592.714 308.909L594.208 307.581ZM573.794 265.404C566.811 239.217 566.366 211.246 568.119 184.512L566.123 184.382C564.364 211.206 564.797 239.427 571.862 265.92L573.794 265.404ZM568.119 184.512C570.312 150.741 574.694 116.61 586.061 85.1336L584.179 84.4543C572.718 116.194 568.32 150.547 566.123 184.382L568.119 184.512ZM586.067 85.1159C593.51 63.2255 603.978 41.4616 620.918 25.8248L619.562 24.3552C602.26 40.3263 591.656 62.4625 584.173 84.4721L586.067 85.1159ZM620.932 25.812C631.272 15.9025 646.84 9.83339 661.565 8.96726L661.447 6.97071C646.32 7.86056 630.28 14.0835 619.548 24.368L620.932 25.812ZM661.506 8.96899C662.237 8.96899 664.296 8.73829 666.226 8.52388C668.247 8.2993 670.139 8.091 670.725 8.091V6.091C669.994 6.091 667.935 6.32169 666.005 6.53611C663.984 6.76068 662.092 6.96899 661.506 6.96899V8.96899ZM670.844 8.08387C681.741 6.77623 693.059 7.21298 704.089 7.21298V5.21298C693.169 5.21298 681.659 4.77174 670.606 6.09812L670.844 8.08387ZM704.089 7.21298C718.948 7.21298 734.621 8.96264 748.516 14.1733L749.218 12.3007C735.017 6.97533 719.082 5.21298 704.089 5.21298V7.21298ZM748.491 14.1635C762.405 19.8161 775.012 28.512 785.007 39.376L786.479 38.0219C776.28 26.936 763.425 18.0719 749.243 12.3105L748.491 14.1635ZM785.007 39.3765C800.227 55.9001 810.25 78.1076 814.172 99.8971L816.14 99.5428C812.16 77.4324 801.989 54.8619 786.479 38.0215L785.007 39.3765ZM814.168 99.8759C818.089 124.71 814.602 151.294 804.583 173.945L806.413 174.755C816.588 151.75 820.125 124.776 816.144 99.564L814.168 99.8759ZM804.572 173.974C798.917 187.892 789.381 201.284 776.47 208.6L777.456 210.34C790.885 202.73 800.665 188.904 806.424 174.726L804.572 173.974ZM776.462 208.605C759.878 218.206 740.726 225.157 721.188 225.591L721.232 227.591C741.204 227.147 760.684 220.05 777.464 210.335L776.462 208.605ZM721.21 225.591C712.048 225.591 702.509 224.717 693.43 221.691L692.798 223.589C702.157 226.709 711.934 227.591 721.21 227.591V225.591ZM692.141 222.872C696.535 241.327 700.884 260.5 699.579 279.642L701.575 279.778C702.904 260.288 698.473 240.829 694.087 222.408L692.141 222.872ZM699.58 279.639C698.705 291.886 696.087 304.763 687.982 313.72L689.466 315.062C698.043 305.581 700.693 292.118 701.574 279.781L699.58 279.639ZM687.961 313.745C683.252 319.31 676.828 323.591 669.988 325.729L670.584 327.637C677.792 325.385 684.538 320.886 689.487 315.037L687.961 313.745ZM697.642 142.976C699.918 145.479 702.874 147.754 706.069 149.295C709.259 150.833 712.755 151.67 716.083 151.195L715.801 149.215C712.983 149.618 709.894 148.919 706.938 147.493C703.987 146.071 701.236 143.956 699.122 141.63L697.642 142.976ZM716.083 151.195C720.945 150.5 726.928 147.306 732.038 143.251C737.145 139.199 741.597 134.116 743.226 129.463L741.338 128.803C739.894 132.93 735.786 137.724 730.795 141.684C725.809 145.641 720.158 148.593 715.801 149.215L716.083 151.195ZM743.224 129.469C745.511 123.065 745.047 114.902 742.323 108.545L740.485 109.333C743.029 115.268 743.443 122.909 741.34 128.797L743.224 129.469ZM742.309 108.513C738.688 100.819 731.932 94.534 724.773 90.5074L723.793 92.2506C730.682 96.126 737.096 102.133 740.499 109.365L742.309 108.513ZM724.787 90.5152C721.986 88.8814 718.412 87.9671 714.916 87.9097C711.427 87.8525 707.899 88.6486 705.257 90.5703L706.433 92.1877C708.62 90.5974 711.677 89.8569 714.883 89.9095C718.082 89.9619 721.312 90.8036 723.779 92.2428L724.787 90.5152ZM705.212 90.605C700.162 94.7364 697.01 101.101 695.225 107.347L697.148 107.897C698.876 101.851 701.87 95.9236 706.478 92.1529L705.212 90.605ZM695.225 107.347C692.542 116.739 692.553 126.54 693.435 136.248L695.427 136.066C694.553 126.458 694.564 116.943 697.148 107.897L695.225 107.347ZM693.482 136.473C693.63 136.917 693.929 137.466 694.254 138.004C694.59 138.562 695 139.184 695.416 139.793C696.284 141.067 697.097 142.179 697.55 142.858L699.214 141.748C698.789 141.11 697.846 139.807 697.068 138.667C696.661 138.069 696.275 137.483 695.967 136.972C695.646 136.439 695.451 136.056 695.38 135.841L693.482 136.473ZM1017.49 328.878L1017.47 327.878L1017.46 327.879L1017.45 327.879L1017.49 328.878ZM932.328 325.366L932.497 324.38L932.496 324.38L932.328 325.366ZM882.721 303.416L882.063 304.17L882.064 304.17L882.721 303.416ZM844.528 230.103L845.518 229.962L845.516 229.95L845.514 229.939L844.528 230.103ZM845.406 141.425L846.395 141.573L846.396 141.565L846.397 141.557L845.406 141.425ZM866.478 65.039L865.595 64.5698L865.589 64.5807L865.583 64.5918L866.478 65.039ZM895.891 26.846L896.57 27.5798L896.575 27.5755L895.891 26.846ZM920.036 11.481L920.352 12.4297L920.376 12.4216L920.4 12.4122L920.036 11.481ZM952.083 5.77399L951.902 4.79053L951.89 4.79264L951.879 4.79501L952.083 5.77399ZM1002.57 1.82299L1002.62 2.8217L1002.63 2.82077L1002.57 1.82299ZM1080.27 12.798L1080.74 11.9175L1080.73 11.9121L1080.72 11.9069L1080.27 12.798ZM1095.2 26.407L1096.04 25.877L1096.03 25.8571L1096.02 25.8378L1095.2 26.407ZM1102.22 50.552L1101.22 50.6019L1101.22 50.6102L1101.22 50.6185L1102.22 50.552ZM1060.08 102.354L1060.09 101.354L1060.09 101.354H1060.08V102.354ZM1037.69 98.403L1037.99 97.4485L1037.96 97.441L1037.94 97.4347L1037.69 98.403ZM996.422 88.745L996.546 87.7527L996.522 87.7498L996.499 87.7479L996.422 88.745ZM963.058 96.208L962.452 95.4125L962.444 95.4186L963.058 96.208ZM956.034 109.817H955.034V109.867L955.039 109.917L956.034 109.817ZM965.692 113.768L965.791 114.763L965.806 114.762L965.82 114.76L965.692 113.768ZM1005.64 105.866L1005.74 106.861L1005.75 106.86L1005.64 105.866ZM1030.66 107.183L1031.06 106.267L1031.02 106.249L1030.98 106.234L1030.66 107.183ZM1047.35 122.987L1048.27 122.608L1048.27 122.597L1048.26 122.586L1047.35 122.987ZM1051.74 153.278L1050.74 153.191L1050.74 153.212L1050.74 153.233L1051.74 153.278ZM1042.52 180.935L1041.74 180.299L1041.73 180.317L1041.72 180.335L1042.52 180.935ZM1027.15 192.788L1027.52 193.716L1027.53 193.712L1027.55 193.707L1027.15 192.788ZM1006.08 196.3L1006.12 197.299L1006.13 197.299L1006.14 197.298L1006.08 196.3ZM955.595 199.812L956.283 200.538L956.292 200.529L956.302 200.519L955.595 199.812ZM969.643 222.64L969.418 223.614L969.436 223.619L969.454 223.622L969.643 222.64ZM1004.76 219.128L1004.56 218.149L1004.55 218.151L1004.54 218.154L1004.76 219.128ZM1055.69 214.299L1055.51 215.282L1055.53 215.287L1055.55 215.29L1055.69 214.299ZM1089.49 234.054L1090.33 233.509L1090.32 233.499L1089.49 234.054ZM1094.32 264.784L1093.34 264.572L1093.34 264.584L1094.32 264.784ZM1064.47 316.147L1065.09 316.931L1065.09 316.928L1064.47 316.147ZM1017.45 327.879C988.937 329.195 960.487 329.191 932.497 324.38L932.158 326.352C960.361 331.199 988.981 331.195 1017.54 329.877L1017.45 327.879ZM932.496 324.38C914.623 321.329 896.811 314.362 883.378 302.662L882.064 304.17C895.848 316.176 914.035 323.257 932.16 326.352L932.496 324.38ZM883.378 302.662C862.95 284.842 849.44 257.416 845.518 229.962L843.538 230.244C847.518 258.104 861.225 285.992 882.063 304.17L883.378 302.662ZM845.514 229.939C840.708 201.101 842.015 170.921 846.395 141.573L844.417 141.277C840.017 170.755 838.69 201.157 843.541 230.267L845.514 229.939ZM846.397 141.557C849.903 115.262 855.591 89.0479 867.372 65.4862L865.583 64.5918C853.658 88.4421 847.933 114.908 844.415 141.293L846.397 141.557ZM867.361 65.5081C874.772 51.5587 884.8 38.4782 896.57 27.5797L895.211 26.1122C883.276 37.1638 873.11 50.4233 865.595 64.5698L867.361 65.5081ZM896.575 27.5755C903.542 21.0438 911.321 15.4399 920.352 12.4297L919.72 10.5323C910.312 13.6681 902.288 19.4781 895.207 26.1164L896.575 27.5755ZM920.4 12.4122C925.326 10.4849 930.599 9.61821 936.015 8.96172C941.392 8.30993 946.963 7.862 952.287 6.75297L951.879 4.79501C946.666 5.88097 941.262 6.31105 935.774 6.97626C930.325 7.63677 924.843 8.52608 919.671 10.5498L920.4 12.4122ZM952.264 6.75744C968.861 3.70004 985.867 3.70335 1002.62 2.8216L1002.52 0.824368C985.905 1.6986 968.668 1.70191 951.902 4.79053L952.264 6.75744ZM1002.63 2.82077C1028.94 1.06705 1056.8 1.96538 1079.82 13.689L1080.72 11.9069C1057.2 -0.0754356 1028.88 -0.933088 1002.5 0.825201L1002.63 2.82077ZM1079.8 13.6784C1085.35 16.67 1090.51 21.387 1094.37 26.9762L1096.02 25.8378C1091.99 20.013 1086.6 15.0719 1080.74 11.9175L1079.8 13.6784ZM1094.35 26.937C1098.63 33.7857 1100.79 41.952 1101.22 50.6019L1103.22 50.502C1102.77 41.592 1100.54 33.0763 1096.04 25.877L1094.35 26.937ZM1101.22 50.6185C1102.95 76.5913 1085.65 101.78 1060.09 101.354L1060.06 103.354C1087.18 103.806 1105 77.1927 1103.22 50.4855L1101.22 50.6185ZM1060.08 101.354C1052.76 101.354 1044.96 99.6289 1037.99 97.4485L1037.39 99.3575C1044.46 101.567 1052.47 103.354 1060.08 103.354V101.354ZM1037.94 97.4347C1024.41 93.9428 1010.68 89.5193 996.546 87.7527L996.298 89.7373C1010.26 91.4827 1023.75 95.8392 1037.44 99.3713L1037.94 97.4347ZM996.499 87.7479C984.999 86.8633 971.963 88.1656 962.452 95.4126L963.664 97.0034C972.59 90.2024 985.017 88.8706 996.345 89.7421L996.499 87.7479ZM962.444 95.4186C958.293 98.6468 955.034 104.189 955.034 109.817H957.034C957.034 104.909 959.92 99.9152 963.672 96.9974L962.444 95.4186ZM955.039 109.917C955.168 111.207 955.631 112.247 956.388 113.039C957.133 113.819 958.096 114.289 959.118 114.568C961.127 115.116 963.6 114.982 965.791 114.763L965.592 112.773C963.394 112.993 961.258 113.079 959.644 112.639C958.856 112.423 958.255 112.098 957.834 111.657C957.424 111.228 957.119 110.622 957.029 109.717L955.039 109.917ZM965.82 114.76C972.69 113.873 979.333 112.212 985.901 110.624C992.49 109.032 999.012 107.512 1005.74 106.861L1005.54 104.871C998.661 105.537 992.013 107.09 985.431 108.68C978.83 110.276 972.303 111.907 965.564 112.776L965.82 114.76ZM1005.75 106.86C1014.08 105.983 1022.67 105.572 1030.35 108.132L1030.98 106.234C1022.86 103.526 1013.89 103.993 1005.54 104.871L1005.75 106.86ZM1030.26 108.099C1037.11 111.095 1043.48 116.643 1046.43 123.388L1048.26 122.586C1045.07 115.283 1038.27 109.417 1031.06 106.267L1030.26 108.099ZM1046.42 123.366C1050.31 132.862 1051.61 143.236 1050.74 153.191L1052.73 153.365C1053.62 143.126 1052.29 132.428 1048.27 122.608L1046.42 123.366ZM1050.74 153.233C1050.3 162.777 1047.7 173.068 1041.74 180.299L1043.29 181.571C1049.63 173.876 1052.29 163.095 1052.73 153.323L1050.74 153.233ZM1041.72 180.335C1037.88 185.449 1032.76 189.297 1026.76 191.869L1027.55 193.707C1033.84 191.011 1039.25 186.957 1043.32 181.535L1041.72 180.335ZM1026.78 191.86C1020.37 194.423 1013.51 194.861 1006.02 195.302L1006.14 197.298C1013.57 196.861 1020.76 196.421 1027.52 193.716L1026.78 191.86ZM1006.04 195.301C1003.36 195.408 999.38 195.193 994.73 194.924C990.106 194.657 984.857 194.34 979.701 194.257C974.55 194.175 969.449 194.325 965.119 195.003C960.835 195.675 957.101 196.891 954.888 199.105L956.302 200.519C958.039 198.782 961.22 197.639 965.428 196.979C969.59 196.327 974.558 196.175 979.669 196.257C984.775 196.339 989.979 196.653 994.615 196.921C999.226 197.187 1003.32 197.411 1006.12 197.299L1006.04 195.301ZM954.907 199.086C952.63 201.243 951.627 203.758 951.666 206.357C951.704 208.923 952.754 211.476 954.396 213.782C957.672 218.38 963.484 222.245 969.418 223.614L969.868 221.666C964.388 220.401 959.005 216.803 956.025 212.621C954.54 210.537 953.696 208.371 953.666 206.327C953.636 204.317 954.389 202.332 956.283 200.538L954.907 199.086ZM969.454 223.622C981.119 225.865 993.641 222.721 1004.99 220.102L1004.54 218.154C993.057 220.803 980.994 223.805 969.832 221.658L969.454 223.622ZM1004.97 220.107C1021.73 216.577 1039.06 212.254 1055.51 215.282L1055.87 213.316C1038.95 210.198 1021.16 214.655 1004.56 218.149L1004.97 220.107ZM1055.55 215.29C1068.49 217.016 1081.82 224.355 1088.66 234.609L1090.32 233.499C1083.11 222.681 1069.22 215.094 1055.82 213.308L1055.55 215.29ZM1088.65 234.599C1094.18 243.111 1095.49 254.68 1093.34 264.572L1095.3 264.996C1097.54 254.694 1096.21 242.557 1090.33 233.509L1088.65 234.599ZM1093.34 264.584C1089.43 283.718 1078.99 303.248 1063.84 315.366L1065.09 316.928C1080.67 304.462 1091.31 284.482 1095.3 264.984L1093.34 264.584ZM1063.85 315.363C1051.39 325.239 1033.7 327.44 1017.47 327.878L1017.52 329.878C1033.78 329.438 1052.08 327.249 1065.09 316.931L1063.85 315.363Z" fill="black"/>
</svg>
