<svg width="302" height="92" viewBox="0 0 302 92" fill="none" xmlns="http://www.w3.org/2000/svg">
<path d="M29.0441 89.64C24.3641 91.08 18.9641 90.96 14.4041 89.04C12.0041 88.08 9.84406 86.52 8.04406 84.6C5.16406 81.36 3.48406 77.16 2.40406 72.96C0.484063 65.76 0.364063 58.08 0.844063 50.76C1.44406 41.52 2.64406 32.16 5.76406 23.52C7.80406 17.52 10.6841 11.52 15.3641 7.19999C18.2441 4.43999 22.5641 2.75999 26.6441 2.52C27.0041 2.52 28.8041 2.28 29.1641 2.28C32.1641 1.92 35.2841 2.04 38.2841 2.04C42.3641 2.04 46.6841 2.52 50.5241 3.96C54.3641 5.51999 57.8441 7.92 60.6041 10.92C64.8041 15.48 67.5641 21.6 68.6441 27.6C69.7241 34.44 68.7641 41.76 66.0041 48C64.4441 51.84 61.8041 55.56 58.2041 57.6C53.6441 60.24 48.3641 62.16 42.9641 62.28C40.4441 62.28 37.8041 62.04 35.2841 61.2C36.4841 66.24 37.6841 71.52 37.3241 76.8C37.0841 80.16 36.3641 83.76 34.0841 86.28C32.7641 87.84 30.9641 89.04 29.0441 89.64ZM36.7241 39.24C37.9241 40.56 39.8441 41.64 41.5241 41.4C44.0441 41.04 47.8841 38.04 48.7241 35.64C49.3241 33.96 49.2041 31.8 48.4841 30.12C47.5241 28.08 45.7241 26.4 43.8041 25.32C42.3641 24.48 40.0841 24.36 38.7641 25.32C37.4441 26.4 36.6041 28.08 36.1241 29.76C35.4041 32.28 35.4041 34.92 35.6441 37.56C35.7641 37.92 36.4841 38.88 36.7241 39.24ZM123.953 90.24C116.153 90.6 108.353 90.6 100.673 89.28C95.7528 88.44 90.8328 86.52 87.1128 83.28C81.4728 78.36 77.7528 70.8 76.6728 63.24C75.3528 55.32 75.7128 47.04 76.9128 39C77.8728 31.8 79.4328 24.6 82.6728 18.12C84.7128 14.28 87.4728 10.68 90.7128 7.67999C92.6328 5.88 94.7928 4.31999 97.3128 3.48C100.073 2.4 103.193 2.52 106.073 1.92C110.633 1.07999 115.313 1.07999 119.873 0.839996C127.073 0.359995 134.753 0.599992 141.113 3.83999C142.673 4.68 144.113 5.99999 145.193 7.56C146.393 9.48 146.993 11.76 147.113 14.16C147.593 21.36 142.793 28.44 135.593 28.32C133.553 28.32 131.393 27.84 129.473 27.24C125.753 26.28 122.033 25.08 118.193 24.6C115.073 24.36 111.593 24.72 109.073 26.64C107.993 27.48 107.153 28.92 107.153 30.36C107.273 31.56 108.593 31.56 109.793 31.44C113.513 30.96 116.993 29.64 120.713 29.28C122.993 29.04 125.393 28.92 127.553 29.64C129.473 30.48 131.273 32.04 132.113 33.96C133.193 36.6 133.553 39.48 133.313 42.24C133.193 44.88 132.473 47.76 130.793 49.8C129.713 51.24 128.273 52.32 126.593 53.04C124.793 53.76 122.873 53.88 120.833 54C117.833 54.12 109.193 52.8 107.033 54.96C104.753 57.12 107.753 60.48 110.873 61.2C113.993 61.8 117.353 60.96 120.473 60.24C125.033 59.28 129.833 58.08 134.393 58.92C137.993 59.4 141.713 61.44 143.633 64.32C145.193 66.72 145.553 69.96 144.953 72.72C143.873 78 140.993 83.4 136.793 86.76C133.313 89.52 128.393 90.12 123.953 90.24ZM183.38 89.64C178.7 91.08 173.3 90.96 168.74 89.04C166.34 88.08 164.18 86.52 162.38 84.6C159.5 81.36 157.82 77.16 156.74 72.96C154.82 65.76 154.7 58.08 155.18 50.76C155.78 41.52 156.98 32.16 160.1 23.52C162.14 17.52 165.02 11.52 169.7 7.19999C172.58 4.43999 176.9 2.75999 180.98 2.52C181.34 2.52 183.14 2.28 183.5 2.28C186.5 1.92 189.62 2.04 192.62 2.04C196.7 2.04 201.02 2.52 204.86 3.96C208.7 5.51999 212.18 7.92 214.94 10.92C219.14 15.48 221.9 21.6 222.98 27.6C224.06 34.44 223.1 41.76 220.34 48C218.78 51.84 216.14 55.56 212.54 57.6C207.98 60.24 202.7 62.16 197.3 62.28C194.78 62.28 192.14 62.04 189.62 61.2C190.82 66.24 192.02 71.52 191.66 76.8C191.42 80.16 190.7 83.76 188.42 86.28C187.1 87.84 185.3 89.04 183.38 89.64ZM191.06 39.24C192.26 40.56 194.18 41.64 195.86 41.4C198.38 41.04 202.22 38.04 203.06 35.64C203.66 33.96 203.54 31.8 202.82 30.12C201.86 28.08 200.06 26.4 198.14 25.32C196.7 24.48 194.42 24.36 193.1 25.32C191.78 26.4 190.94 28.08 190.46 29.76C189.74 32.28 189.74 34.92 189.98 37.56C190.1 37.92 190.82 38.88 191.06 39.24ZM278.289 90.24C270.489 90.6 262.689 90.6 255.009 89.28C250.089 88.44 245.169 86.52 241.449 83.28C235.809 78.36 232.089 70.8 231.009 63.24C229.689 55.32 230.049 47.04 231.249 39C232.209 31.8 233.769 24.6 237.009 18.12C239.049 14.28 241.809 10.68 245.049 7.67999C246.969 5.88 249.129 4.31999 251.649 3.48C254.409 2.4 257.529 2.52 260.409 1.92C264.969 1.07999 269.649 1.07999 274.209 0.839996C281.409 0.359995 289.089 0.599992 295.449 3.83999C297.009 4.68 298.449 5.99999 299.529 7.56C300.729 9.48 301.329 11.76 301.449 14.16C301.929 21.36 297.129 28.44 289.929 28.32C287.889 28.32 285.729 27.84 283.809 27.24C280.089 26.28 276.369 25.08 272.529 24.6C269.409 24.36 265.929 24.72 263.409 26.64C262.329 27.48 261.489 28.92 261.489 30.36C261.609 31.56 262.929 31.56 264.129 31.44C267.849 30.96 271.329 29.64 275.049 29.28C277.329 29.04 279.729 28.92 281.889 29.64C283.809 30.48 285.609 32.04 286.449 33.96C287.529 36.6 287.889 39.48 287.649 42.24C287.529 44.88 286.809 47.76 285.129 49.8C284.049 51.24 282.609 52.32 280.929 53.04C279.129 53.76 277.209 53.88 275.169 54C272.169 54.12 263.529 52.8 261.369 54.96C259.089 57.12 262.089 60.48 265.209 61.2C268.329 61.8 271.689 60.96 274.809 60.24C279.369 59.28 284.169 58.08 288.729 58.92C292.329 59.4 296.049 61.44 297.969 64.32C299.529 66.72 299.889 69.96 299.289 72.72C298.209 78 295.329 83.4 291.129 86.76C287.649 89.52 282.729 90.12 278.289 90.24Z" fill="white"/>
<path d="M29.0441 89.64L29.3382 90.5958L29.3423 90.5945L29.0441 89.64ZM14.4041 89.04L14.7921 88.1184L14.7838 88.1149L14.7755 88.1115L14.4041 89.04ZM8.04406 84.6L7.29665 85.2644L7.30546 85.2743L7.31453 85.2839L8.04406 84.6ZM2.40406 72.96L3.37259 72.7109L3.3703 72.7023L2.40406 72.96ZM0.844063 50.76L1.84192 50.8254L1.84196 50.8248L0.844063 50.76ZM5.76406 23.52L6.70462 23.8596L6.70781 23.8508L6.71084 23.8419L5.76406 23.52ZM15.3641 7.19999L16.0423 7.9348L16.0492 7.92845L16.056 7.92198L15.3641 7.19999ZM26.6441 2.52V1.52H26.6147L26.5853 1.52172L26.6441 2.52ZM29.1641 2.28V3.28H29.2239L29.2832 3.27288L29.1641 2.28ZM50.5241 3.96L50.9004 3.03353L50.8879 3.02843L50.8752 3.02367L50.5241 3.96ZM60.6041 10.92L59.8681 11.5971L59.8685 11.5975L60.6041 10.92ZM68.6441 27.6L69.6318 27.444L69.6301 27.4334L69.6283 27.4228L68.6441 27.6ZM66.0041 48L65.0895 47.5955L65.0834 47.6095L65.0776 47.6236L66.0041 48ZM58.2041 57.6L57.711 56.7299L57.703 56.7346L58.2041 57.6ZM42.9641 62.28V63.28H42.9752L42.9863 63.2798L42.9641 62.28ZM35.2841 61.2L35.6003 60.2513L33.8949 59.6828L34.3113 61.4316L35.2841 61.2ZM37.3241 76.8L38.3215 76.8712L38.3218 76.868L37.3241 76.8ZM34.0841 86.28L33.3425 85.6091L33.3314 85.6214L33.3207 85.6341L34.0841 86.28ZM36.7241 39.24L35.892 39.7947L35.9336 39.8571L35.9841 39.9127L36.7241 39.24ZM41.5241 41.4L41.3826 40.41L41.5241 41.4ZM48.7241 35.64L47.7823 35.3037L47.7802 35.3096L48.7241 35.64ZM48.4841 30.12L49.4032 29.7261L49.3963 29.71L49.3889 29.6942L48.4841 30.12ZM43.8041 25.32L43.3002 26.1838L43.307 26.1877L43.3138 26.1916L43.8041 25.32ZM38.7641 25.32L38.1759 24.5113L38.1529 24.528L38.1308 24.546L38.7641 25.32ZM36.1241 29.76L35.1625 29.4853V29.4853L36.1241 29.76ZM35.6441 37.56L34.6482 37.6505L34.6587 37.7661L34.6954 37.8762L35.6441 37.56ZM28.75 88.6842C24.2748 90.0612 19.1177 89.9397 14.7921 88.1184L14.016 89.9616C18.8104 91.9803 24.4533 92.0988 29.3382 90.5958L28.75 88.6842ZM14.7755 88.1115C12.529 87.213 10.4875 85.7442 8.7736 83.9161L7.31453 85.2839C9.20062 87.2958 11.4791 88.947 14.0327 89.9685L14.7755 88.1115ZM8.79147 83.9356C6.06245 80.8655 4.43439 76.8403 3.37256 72.711L1.43557 73.209C2.53373 77.4797 4.26567 81.8545 7.29665 85.2644L8.79147 83.9356ZM3.3703 72.7023C1.49096 65.6548 1.36493 58.0996 1.84192 50.8254L-0.153794 50.6946C-0.636803 58.0604 -0.522836 65.8652 1.43783 73.2177L3.3703 72.7023ZM1.84196 50.8248C2.43985 41.6173 3.63228 32.3677 6.70462 23.8596L4.82351 23.1804C1.65585 31.9523 0.448276 41.4227 -0.153836 50.6952L1.84196 50.8248ZM6.71084 23.8419C8.73057 17.9015 11.5434 12.0877 16.0423 7.9348L14.6858 6.46519C9.82471 10.9523 6.87756 17.1385 4.81729 23.1981L6.71084 23.8419ZM16.056 7.92198C18.7403 5.34949 22.8243 3.74641 26.7028 3.51827L26.5853 1.52172C22.3038 1.77357 17.7478 3.5305 14.6722 6.478L16.056 7.92198ZM26.6441 3.52C26.8965 3.52 27.5202 3.4488 28.0145 3.39388C28.2861 3.3637 28.5502 3.33438 28.7686 3.31254C28.8777 3.30162 28.9708 3.29305 29.0447 3.2873C29.0816 3.28443 29.111 3.28248 29.1335 3.28128C29.1576 3.28 29.1663 3.28 29.1641 3.28V1.28C28.9117 1.28 28.2879 1.35119 27.7936 1.40611C27.522 1.4363 27.258 1.46562 27.0396 1.48746C26.9304 1.49837 26.8373 1.50694 26.7634 1.51269C26.7265 1.51556 26.6971 1.51752 26.6746 1.51871C26.6505 1.51999 26.6418 1.52 26.6441 1.52V3.52ZM29.2832 3.27288C32.2051 2.92224 35.2294 3.04 38.2841 3.04V1.04C35.3387 1.04 32.123 0.917751 29.0449 1.28712L29.2832 3.27288ZM38.2841 3.04C42.2969 3.04 46.4858 3.51365 50.1729 4.89633L50.8752 3.02367C46.8823 1.52634 42.4312 1.04 38.2841 1.04V3.04ZM50.1477 4.88647C53.8538 6.39208 57.2102 8.70802 59.8681 11.5971L61.34 10.2429C58.4779 7.13198 54.8743 4.64791 50.9004 3.03353L50.1477 4.88647ZM59.8685 11.5975C63.9226 15.9991 66.6088 21.9376 67.6599 27.7771L69.6283 27.4228C68.5194 21.2624 65.6855 14.9609 61.3396 10.2425L59.8685 11.5975ZM67.6563 27.756C68.7065 34.407 67.7713 41.5324 65.0895 47.5955L66.9186 48.4045C69.7568 41.9876 70.7417 34.473 69.6318 27.444L67.6563 27.756ZM65.0776 47.6236C63.5704 51.3337 61.0521 54.8367 57.7111 56.73L58.6971 58.47C62.556 56.2833 65.3178 52.3463 66.9305 48.3764L65.0776 47.6236ZM57.703 56.7346C53.2406 59.3181 48.1254 61.1651 42.9418 61.2802L42.9863 63.2798C48.6027 63.1549 54.0475 61.1619 58.7051 58.4654L57.703 56.7346ZM42.9641 61.28C40.5014 61.28 37.9797 61.0444 35.6003 60.2513L34.9678 62.1487C37.6285 63.0356 40.3868 63.28 42.9641 63.28V61.28ZM34.3113 61.4316C35.5153 66.4886 36.6745 71.6258 36.3264 76.732L38.3218 76.868C38.6936 71.4142 37.4528 65.9914 36.2569 60.9684L34.3113 61.4316ZM36.3266 76.7288C36.0898 80.0439 35.3857 83.3508 33.3425 85.6091L34.8256 86.9509C37.3424 84.1692 38.0783 80.2761 38.3215 76.8712L36.3266 76.7288ZM33.3207 85.6341C32.1212 87.0516 30.4816 88.1431 28.7458 88.6855L29.3423 90.5945C31.4465 89.9369 33.4069 88.6284 34.8475 86.9259L33.3207 85.6341ZM35.9841 39.9127C36.6653 40.6619 37.5475 41.3418 38.5098 41.8058C39.4662 42.2669 40.5701 42.5464 41.6655 42.3899L41.3826 40.41C40.798 40.4936 40.1019 40.3531 39.3784 40.0042C38.6607 39.6582 37.9829 39.1381 37.464 38.5673L35.9841 39.9127ZM41.6655 42.3899C43.1776 42.1739 44.9334 41.2127 46.3756 40.0684C47.8134 38.9275 49.156 37.433 49.6679 35.9703L47.7802 35.3096C47.4521 36.247 46.4547 37.4525 45.1325 38.5016C43.8147 39.5473 42.3905 40.2661 41.3826 40.41L41.6655 42.3899ZM49.6658 35.9763C50.3582 34.0378 50.2134 31.6166 49.4032 29.7261L47.5649 30.5139C48.1947 31.9834 48.29 33.8822 47.7823 35.3037L49.6658 35.9763ZM49.3889 29.6942C48.32 27.4228 46.3487 25.604 44.2943 24.4484L43.3138 26.1916C45.0994 27.196 46.7281 28.7372 47.5792 30.5458L49.3889 29.6942ZM44.3079 24.4562C43.4211 23.9389 42.319 23.6626 41.2555 23.6451C40.1987 23.6278 39.0637 23.8656 38.1759 24.5113L39.3522 26.1287C39.7844 25.8144 40.4495 25.6322 41.2227 25.6449C41.9892 25.6574 42.747 25.8611 43.3002 26.1838L44.3079 24.4562ZM38.1308 24.546C36.5904 25.8064 35.6712 27.7051 35.1625 29.4853L37.0856 30.0347C37.537 28.4549 38.2977 26.9936 39.3973 26.094L38.1308 24.546ZM35.1625 29.4853C34.3931 32.1783 34.4036 34.9606 34.6482 37.6505L36.64 37.4695C36.4045 34.8794 36.415 32.3817 37.0856 30.0347L35.1625 29.4853ZM34.6954 37.8762C34.7635 38.0807 34.8833 38.2908 34.9732 38.4399C35.0754 38.6095 35.1961 38.7922 35.3128 38.9633C35.5833 39.3599 35.7583 39.5941 35.892 39.7947L37.5561 38.6853C37.4498 38.5259 37.1449 38.1001 36.9653 37.8367C36.857 37.6778 36.7602 37.5305 36.6862 37.4076C36.5998 37.2642 36.5846 37.2193 36.5928 37.2438L34.6954 37.8762ZM123.953 90.24L123.926 89.2404L123.916 89.2406L123.907 89.2411L123.953 90.24ZM100.673 89.28L100.842 88.2944L100.841 88.2943L100.673 89.28ZM87.1128 83.28L86.4554 84.0336L86.456 84.0341L87.1128 83.28ZM76.6728 63.24L77.6628 63.0986L77.6611 63.0871L77.6592 63.0756L76.6728 63.24ZM76.9128 39L77.9019 39.1476L77.903 39.1399L77.904 39.1322L76.9128 39ZM82.6728 18.12L81.7897 17.6508L81.7839 17.6617L81.7784 17.6728L82.6728 18.12ZM90.7128 7.67999L91.3922 8.41377L91.3968 8.40953L90.7128 7.67999ZM97.3128 3.48L97.629 4.42868L97.6534 4.42058L97.6772 4.41124L97.3128 3.48ZM106.073 1.92L105.892 0.936544L105.88 0.938648L105.869 0.941016L106.073 1.92ZM119.873 0.839996L119.925 1.83871L119.939 1.83778L119.873 0.839996ZM141.113 3.83999L141.587 2.95952L141.577 2.95412L141.567 2.94895L141.113 3.83999ZM145.193 7.56L146.041 7.03L146.028 7.01009L146.015 6.99079L145.193 7.56ZM147.113 14.16L146.114 14.2099L146.114 14.2182L146.115 14.2265L147.113 14.16ZM135.593 28.32L135.609 27.3201L135.601 27.32H135.593V28.32ZM129.473 27.24L129.771 26.2855L129.747 26.278L129.723 26.2717L129.473 27.24ZM118.193 24.6L118.317 23.6077L118.293 23.6048L118.27 23.6029L118.193 24.6ZM109.073 26.64L108.467 25.8445L108.459 25.8506L109.073 26.64ZM107.153 30.36H106.153V30.4099L106.158 30.4595L107.153 30.36ZM109.793 31.44L109.892 32.435L109.907 32.4336L109.921 32.4318L109.793 31.44ZM120.713 29.28L120.809 30.2754L120.817 30.2745L120.713 29.28ZM127.553 29.64L127.954 28.7238L127.912 28.7057L127.869 28.6913L127.553 29.64ZM132.113 33.96L133.038 33.5814L133.034 33.5702L133.029 33.5592L132.113 33.96ZM133.313 42.24L132.317 42.1534L132.315 42.174L132.314 42.1946L133.313 42.24ZM130.793 49.8L130.021 49.1643L130.006 49.1818L129.993 49.2L130.793 49.8ZM126.593 53.04L126.964 53.9685L126.976 53.9639L126.987 53.9591L126.593 53.04ZM120.833 54L120.873 54.9992L120.882 54.9988L120.892 54.9983L120.833 54ZM107.033 54.96L107.721 55.686L107.73 55.6767L107.74 55.6671L107.033 54.96ZM110.873 61.2L110.648 62.1744L110.666 62.1785L110.684 62.182L110.873 61.2ZM120.473 60.24L120.267 59.2614L120.257 59.2634L120.248 59.2656L120.473 60.24ZM134.393 58.92L134.212 59.9035L134.236 59.9079L134.261 59.9112L134.393 58.92ZM143.633 64.32L144.471 63.775L144.465 63.7653L143.633 64.32ZM144.953 72.72L143.976 72.5076L143.973 72.5196L144.953 72.72ZM136.793 86.76L137.414 87.5435L137.418 87.5409L136.793 86.76ZM123.907 89.2411C116.131 89.5999 108.416 89.5962 100.842 88.2944L100.503 90.2655C108.29 91.6038 116.175 91.6001 123.999 91.2389L123.907 89.2411ZM100.841 88.2943C96.0469 87.4757 91.3142 85.6132 87.7696 82.5259L86.456 84.0341C90.3514 87.4268 95.4588 89.4043 100.505 90.2657L100.841 88.2943ZM87.7702 82.5264C82.3354 77.7854 78.7138 70.4556 77.6628 63.0986L75.6829 63.3814C76.7919 71.1444 80.6102 78.9346 86.4554 84.0336L87.7702 82.5264ZM77.6592 63.0756C76.3619 55.2916 76.7115 47.1231 77.9019 39.1476L75.9238 38.8524C74.7141 46.9569 74.3437 55.3484 75.6864 63.4044L77.6592 63.0756ZM77.904 39.1322C78.8581 31.9766 80.3994 24.9029 83.5672 18.5672L81.7784 17.6728C78.4662 24.2971 76.8875 31.6234 75.9216 38.8678L77.904 39.1322ZM83.5559 18.5892C85.5436 14.8477 88.2349 11.3372 91.3922 8.41375L90.0334 6.94623C86.7108 10.0228 83.882 13.7123 81.7897 17.6508L83.5559 18.5892ZM91.3968 8.40953C93.2599 6.66285 95.2974 5.20588 97.629 4.42868L96.9966 2.53131C94.2882 3.43411 92.0057 5.09714 90.0289 6.95046L91.3968 8.40953ZM97.6772 4.41124C98.9341 3.91941 100.3 3.69072 101.768 3.51273C103.198 3.33944 104.781 3.21051 106.277 2.89898L105.869 0.941016C104.484 1.22948 103.068 1.34056 101.527 1.52726C100.026 1.70928 98.4515 1.96059 96.9484 2.54876L97.6772 4.41124ZM106.254 2.90345C110.729 2.07906 115.294 2.08236 119.925 1.83861L119.82 -0.158622C115.332 0.0776224 110.536 0.08093 105.892 0.936544L106.254 2.90345ZM119.939 1.83778C127.105 1.36007 134.553 1.6204 140.659 4.73103L141.567 2.94895C134.953 -0.420415 127.041 -0.640076 119.806 -0.157789L119.939 1.83778ZM140.639 4.72046C142.047 5.47904 143.372 6.68702 144.371 8.12921L146.015 6.99079C144.853 5.31297 143.298 3.88096 141.587 2.95952L140.639 4.72046ZM144.345 8.08999C145.435 9.83474 146.001 11.94 146.114 14.2099L148.112 14.1101C147.985 11.58 147.35 9.12526 146.041 7.03L144.345 8.08999ZM146.115 14.2265C146.571 21.0593 142.028 27.4271 135.609 27.3201L135.576 29.3199C143.558 29.4529 148.615 21.6607 148.111 14.0935L146.115 14.2265ZM135.593 27.32C133.696 27.32 131.644 26.8709 129.771 26.2855L129.175 28.1945C131.141 28.8091 133.41 29.32 135.593 29.32V27.32ZM129.723 26.2717C126.081 25.3318 122.242 24.0983 118.317 23.6077L118.069 25.5923C121.824 26.0617 125.425 27.2282 129.223 28.2083L129.723 26.2717ZM118.27 23.6029C115.064 23.3563 111.279 23.7016 108.467 25.8446L109.679 27.4354C111.906 25.7384 115.082 25.3637 118.116 25.5971L118.27 23.6029ZM108.459 25.8506C107.179 26.8458 106.153 28.5596 106.153 30.36H108.153C108.153 29.2804 108.806 28.1142 109.687 27.4294L108.459 25.8506ZM106.158 30.4595C106.207 30.9521 106.392 31.3944 106.724 31.7425C107.045 32.0789 107.44 32.2604 107.805 32.3598C108.497 32.5487 109.296 32.4947 109.892 32.435L109.693 30.445C109.09 30.5053 108.628 30.5113 108.331 30.4302C108.267 30.4128 108.226 30.3949 108.201 30.3814C108.188 30.3748 108.181 30.3695 108.176 30.3662C108.172 30.363 108.17 30.3612 108.17 30.3612C108.17 30.3611 108.17 30.3612 108.171 30.3615C108.171 30.3618 108.171 30.362 108.171 30.3621C108.171 30.3625 108.17 30.361 108.168 30.3565C108.165 30.3481 108.154 30.3197 108.148 30.2605L106.158 30.4595ZM109.921 32.4318C111.846 32.1834 113.704 31.7181 115.488 31.287C117.291 30.8512 119.028 30.4477 120.809 30.2753L120.616 28.2846C118.678 28.4723 116.814 28.9088 115.018 29.343C113.202 29.7819 111.46 30.2166 109.665 30.4482L109.921 32.4318ZM120.817 30.2745C123.089 30.0354 125.298 29.9426 127.237 30.5887L127.869 28.6913C125.487 27.8974 122.897 28.0446 120.608 28.2855L120.817 30.2745ZM127.152 30.5562C128.895 31.3189 130.479 32.7201 131.197 34.3608L133.029 33.5592C132.067 31.3599 130.05 29.6411 127.954 28.7238L127.152 30.5562ZM131.187 34.3386C132.201 36.8166 132.544 39.5352 132.317 42.1534L134.309 42.3266C134.561 39.4248 134.185 36.3834 133.038 33.5814L131.187 34.3386ZM132.314 42.1946C132.199 44.7206 131.51 47.356 130.021 49.1643L131.565 50.4357C133.436 48.164 134.187 45.0394 134.312 42.2854L132.314 42.1946ZM129.993 49.2C129.028 50.4865 127.734 51.4629 126.199 52.1208L126.987 53.9591C128.812 53.1771 130.398 51.9935 131.593 50.4L129.993 49.2ZM126.221 52.1115C124.597 52.7614 122.841 52.8801 120.774 53.0017L120.892 54.9983C122.905 54.8799 124.989 54.7586 126.964 53.9685L126.221 52.1115ZM120.793 53.0008C120.103 53.0284 119.057 52.9728 117.772 52.8985C116.513 52.8258 115.061 52.738 113.634 52.7151C112.211 52.6923 110.768 52.7326 109.524 52.9277C108.326 53.1154 107.104 53.4749 106.326 54.2529L107.74 55.6671C108.042 55.3651 108.71 55.0796 109.833 54.9036C110.91 54.7349 112.219 54.6927 113.602 54.7149C114.979 54.737 116.385 54.8217 117.657 54.8952C118.903 54.9672 120.063 55.0316 120.873 54.9992L120.793 53.0008ZM106.345 54.234C105.583 54.956 105.219 55.8352 105.232 56.7599C105.246 57.6511 105.607 58.4899 106.113 59.2003C107.116 60.608 108.861 61.7619 110.648 62.1744L111.098 60.2256C109.765 59.9181 108.449 59.032 107.742 58.0397C107.393 57.5501 107.238 57.0989 107.232 56.7301C107.227 56.3948 107.343 56.044 107.721 55.686L106.345 54.234ZM110.684 62.182C114.055 62.8303 117.645 61.9188 120.698 61.2144L120.248 59.2656C117.061 60.0012 113.93 60.7696 111.062 60.218L110.684 62.182ZM120.679 61.2185C125.321 60.2412 129.892 59.1077 134.212 59.9035L134.574 57.9365C129.774 57.0523 124.744 58.3188 120.267 59.2614L120.679 61.2185ZM134.261 59.9112C137.631 60.3605 141.069 62.2768 142.801 64.8747L144.465 63.7653C142.357 60.6032 138.355 58.4394 134.525 57.9288L134.261 59.9112ZM142.794 64.865C144.18 66.9974 144.531 69.9526 143.976 72.5076L145.93 72.9324C146.575 69.9674 146.205 66.4426 144.471 63.775L142.794 64.865ZM143.973 72.5196C142.93 77.6176 140.151 82.7926 136.168 85.9791L137.418 87.5409C141.834 84.0074 144.815 78.3824 145.933 72.9204L143.973 72.5196ZM136.171 85.9765C132.971 88.5147 128.354 89.1207 123.926 89.2404L123.98 91.2396C128.432 91.1193 133.655 90.5253 137.414 87.5435L136.171 85.9765ZM183.38 89.64L183.674 90.5958L183.678 90.5945L183.38 89.64ZM168.74 89.04L169.128 88.1184L169.12 88.1149L169.111 88.1115L168.74 89.04ZM162.38 84.6L161.633 85.2644L161.641 85.2743L161.65 85.2839L162.38 84.6ZM156.74 72.96L157.709 72.7109L157.706 72.7023L156.74 72.96ZM155.18 50.76L156.178 50.8254L156.178 50.8248L155.18 50.76ZM160.1 23.52L161.041 23.8596L161.044 23.8508L161.047 23.8419L160.1 23.52ZM169.7 7.19999L170.378 7.9348L170.385 7.92845L170.392 7.92198L169.7 7.19999ZM180.98 2.52V1.52H180.951L180.921 1.52172L180.98 2.52ZM183.5 2.28V3.28H183.56L183.619 3.27288L183.5 2.28ZM204.86 3.96L205.236 3.03353L205.224 3.02843L205.211 3.02367L204.86 3.96ZM214.94 10.92L214.204 11.5971L214.204 11.5975L214.94 10.92ZM222.98 27.6L223.968 27.444L223.966 27.4334L223.964 27.4228L222.98 27.6ZM220.34 48L219.425 47.5955L219.419 47.6095L219.414 47.6236L220.34 48ZM212.54 57.6L212.047 56.7299L212.039 56.7346L212.54 57.6ZM197.3 62.28V63.28H197.311L197.322 63.2798L197.3 62.28ZM189.62 61.2L189.936 60.2513L188.231 59.6828L188.647 61.4316L189.62 61.2ZM191.66 76.8L192.657 76.8712L192.658 76.868L191.66 76.8ZM188.42 86.28L187.678 85.6091L187.667 85.6214L187.657 85.6341L188.42 86.28ZM191.06 39.24L190.228 39.7947L190.27 39.8571L190.32 39.9127L191.06 39.24ZM195.86 41.4L195.719 40.41L195.86 41.4ZM203.06 35.64L202.118 35.3037L202.116 35.3096L203.06 35.64ZM202.82 30.12L203.739 29.7261L203.732 29.71L203.725 29.6942L202.82 30.12ZM198.14 25.32L197.636 26.1838L197.643 26.1877L197.65 26.1916L198.14 25.32ZM193.1 25.32L192.512 24.5113L192.489 24.528L192.467 24.546L193.1 25.32ZM190.46 29.76L189.498 29.4853V29.4853L190.46 29.76ZM189.98 37.56L188.984 37.6505L188.995 37.7661L189.031 37.8762L189.98 37.56ZM183.086 88.6842C178.611 90.0612 173.454 89.9397 169.128 88.1184L168.352 89.9616C173.146 91.9803 178.789 92.0988 183.674 90.5958L183.086 88.6842ZM169.111 88.1115C166.865 87.213 164.823 85.7442 163.11 83.9161L161.65 85.2839C163.537 87.2958 165.815 88.947 168.369 89.9685L169.111 88.1115ZM163.127 83.9356C160.398 80.8655 158.77 76.8403 157.708 72.711L155.771 73.209C156.87 77.4797 158.602 81.8545 161.633 85.2644L163.127 83.9356ZM157.706 72.7023C155.827 65.6548 155.701 58.0996 156.178 50.8254L154.182 50.6946C153.699 58.0604 153.813 65.8652 155.774 73.2177L157.706 72.7023ZM156.178 50.8248C156.776 41.6173 157.968 32.3677 161.041 23.8596L159.159 23.1804C155.992 31.9523 154.784 41.4227 154.182 50.6952L156.178 50.8248ZM161.047 23.8419C163.066 17.9015 165.879 12.0877 170.378 7.9348L169.022 6.46519C164.161 10.9523 161.214 17.1385 159.153 23.1981L161.047 23.8419ZM170.392 7.92198C173.076 5.34949 177.16 3.74641 181.039 3.51827L180.921 1.52172C176.64 1.77357 172.084 3.5305 169.008 6.478L170.392 7.92198ZM180.98 3.52C181.232 3.52 181.856 3.4488 182.35 3.39388C182.622 3.3637 182.886 3.33438 183.105 3.31254C183.214 3.30162 183.307 3.29305 183.381 3.2873C183.418 3.28443 183.447 3.28248 183.469 3.28128C183.494 3.28 183.502 3.28 183.5 3.28V1.28C183.248 1.28 182.624 1.35119 182.13 1.40611C181.858 1.4363 181.594 1.46562 181.376 1.48746C181.266 1.49837 181.173 1.50694 181.099 1.51269C181.062 1.51556 181.033 1.51752 181.011 1.51871C180.986 1.51999 180.978 1.52 180.98 1.52V3.52ZM183.619 3.27288C186.541 2.92224 189.565 3.04 192.62 3.04V1.04C189.675 1.04 186.459 0.917751 183.381 1.28712L183.619 3.27288ZM192.62 3.04C196.633 3.04 200.822 3.51365 204.509 4.89633L205.211 3.02367C201.218 1.52634 196.767 1.04 192.62 1.04V3.04ZM204.484 4.88647C208.19 6.39208 211.546 8.70802 214.204 11.5971L215.676 10.2429C212.814 7.13198 209.21 4.64791 205.236 3.03353L204.484 4.88647ZM214.204 11.5975C218.259 15.9991 220.945 21.9376 221.996 27.7771L223.964 27.4228C222.855 21.2624 220.021 14.9609 215.676 10.2425L214.204 11.5975ZM221.992 27.756C223.042 34.407 222.107 41.5324 219.425 47.5955L221.255 48.4045C224.093 41.9876 225.078 34.473 223.968 27.444L221.992 27.756ZM219.414 47.6236C217.906 51.3337 215.388 54.8367 212.047 56.73L213.033 58.47C216.892 56.2833 219.654 52.3463 221.266 48.3764L219.414 47.6236ZM212.039 56.7346C207.577 59.3181 202.461 61.1651 197.278 61.2802L197.322 63.2798C202.939 63.1549 208.383 61.1619 213.041 58.4654L212.039 56.7346ZM197.3 61.28C194.837 61.28 192.316 61.0444 189.936 60.2513L189.304 62.1487C191.964 63.0356 194.723 63.28 197.3 63.28V61.28ZM188.647 61.4316C189.851 66.4886 191.01 71.6258 190.662 76.732L192.658 76.868C193.03 71.4142 191.789 65.9914 190.593 60.9684L188.647 61.4316ZM190.663 76.7288C190.426 80.0439 189.722 83.3508 187.678 85.6091L189.162 86.9509C191.678 84.1692 192.414 80.2761 192.657 76.8712L190.663 76.7288ZM187.657 85.6341C186.457 87.0516 184.818 88.1431 183.082 88.6855L183.678 90.5945C185.782 89.9369 187.743 88.6284 189.183 86.9259L187.657 85.6341ZM190.32 39.9127C191.001 40.6619 191.883 41.3418 192.846 41.8058C193.802 42.2669 194.906 42.5464 196.001 42.3899L195.719 40.41C195.134 40.4936 194.438 40.3531 193.714 40.0042C192.997 39.6582 192.319 39.1381 191.8 38.5673L190.32 39.9127ZM196.001 42.3899C197.514 42.1739 199.269 41.2127 200.712 40.0684C202.149 38.9275 203.492 37.433 204.004 35.9703L202.116 35.3096C201.788 36.247 200.791 37.4525 199.468 38.5016C198.151 39.5473 196.726 40.2661 195.719 40.41L196.001 42.3899ZM204.002 35.9763C204.694 34.0378 204.549 31.6166 203.739 29.7261L201.901 30.5139C202.531 31.9834 202.626 33.8822 202.118 35.3037L204.002 35.9763ZM203.725 29.6942C202.656 27.4228 200.685 25.604 198.63 24.4484L197.65 26.1916C199.435 27.196 201.064 28.7372 201.915 30.5458L203.725 29.6942ZM198.644 24.4562C197.757 23.9389 196.655 23.6626 195.591 23.6451C194.535 23.6278 193.4 23.8656 192.512 24.5113L193.688 26.1287C194.12 25.8144 194.785 25.6322 195.559 25.6449C196.325 25.6574 197.083 25.8611 197.636 26.1838L198.644 24.4562ZM192.467 24.546C190.926 25.8064 190.007 27.7051 189.498 29.4853L191.422 30.0347C191.873 28.4549 192.634 26.9936 193.733 26.094L192.467 24.546ZM189.498 29.4853C188.729 32.1783 188.74 34.9606 188.984 37.6505L190.976 37.4695C190.74 34.8794 190.751 32.3817 191.422 30.0347L189.498 29.4853ZM189.031 37.8762C189.099 38.0807 189.219 38.2908 189.309 38.4399C189.411 38.6095 189.532 38.7922 189.649 38.9633C189.919 39.3599 190.094 39.5941 190.228 39.7947L191.892 38.6853C191.786 38.5259 191.481 38.1001 191.301 37.8367C191.193 37.6778 191.096 37.5305 191.022 37.4076C190.936 37.2642 190.921 37.2193 190.929 37.2438L189.031 37.8762ZM278.289 90.24L278.262 89.2404L278.252 89.2406L278.243 89.2411L278.289 90.24ZM255.009 89.28L255.178 88.2944L255.177 88.2943L255.009 89.28ZM241.449 83.28L240.791 84.0336L240.792 84.0341L241.449 83.28ZM231.009 63.24L231.999 63.0986L231.997 63.0871L231.995 63.0756L231.009 63.24ZM231.249 39L232.238 39.1476L232.239 39.1399L232.24 39.1322L231.249 39ZM237.009 18.12L236.126 17.6508L236.12 17.6617L236.114 17.6728L237.009 18.12ZM245.049 7.67999L245.728 8.41377L245.733 8.40953L245.049 7.67999ZM251.649 3.48L251.965 4.42868L251.989 4.42058L252.013 4.41124L251.649 3.48ZM260.409 1.92L260.228 0.936544L260.216 0.938648L260.205 0.941016L260.409 1.92ZM274.209 0.839996L274.261 1.83871L274.275 1.83778L274.209 0.839996ZM295.449 3.83999L295.923 2.95952L295.913 2.95412L295.903 2.94895L295.449 3.83999ZM299.529 7.56L300.377 7.03L300.364 7.01009L300.351 6.99079L299.529 7.56ZM301.449 14.16L300.45 14.2099L300.45 14.2182L300.451 14.2265L301.449 14.16ZM289.929 28.32L289.945 27.3201L289.937 27.32H289.929V28.32ZM283.809 27.24L284.107 26.2855L284.083 26.278L284.059 26.2717L283.809 27.24ZM272.529 24.6L272.653 23.6077L272.629 23.6048L272.605 23.6029L272.529 24.6ZM263.409 26.64L262.803 25.8445L262.795 25.8506L263.409 26.64ZM261.489 30.36H260.489V30.4099L260.494 30.4595L261.489 30.36ZM264.129 31.44L264.228 32.435L264.243 32.4336L264.257 32.4318L264.129 31.44ZM275.049 29.28L275.145 30.2754L275.153 30.2745L275.049 29.28ZM281.889 29.64L282.29 28.7238L282.248 28.7057L282.205 28.6913L281.889 29.64ZM286.449 33.96L287.374 33.5814L287.37 33.5702L287.365 33.5592L286.449 33.96ZM287.649 42.24L286.652 42.1534L286.651 42.174L286.65 42.1946L287.649 42.24ZM285.129 49.8L284.357 49.1643L284.342 49.1818L284.329 49.2L285.129 49.8ZM280.929 53.04L281.3 53.9685L281.311 53.9639L281.323 53.9591L280.929 53.04ZM275.169 54L275.209 54.9992L275.218 54.9988L275.227 54.9983L275.169 54ZM261.369 54.96L262.056 55.686L262.066 55.6767L262.076 55.6671L261.369 54.96ZM265.209 61.2L264.984 62.1744L265.002 62.1785L265.02 62.182L265.209 61.2ZM274.809 60.24L274.603 59.2614L274.593 59.2634L274.584 59.2656L274.809 60.24ZM288.729 58.92L288.548 59.9035L288.572 59.9079L288.597 59.9112L288.729 58.92ZM297.969 64.32L298.807 63.775L298.801 63.7653L297.969 64.32ZM299.289 72.72L298.311 72.5076L298.309 72.5196L299.289 72.72ZM291.129 86.76L291.75 87.5435L291.753 87.5409L291.129 86.76ZM278.243 89.2411C270.467 89.5999 262.752 89.5962 255.178 88.2944L254.839 90.2655C262.626 91.6038 270.51 91.6001 278.335 91.2389L278.243 89.2411ZM255.177 88.2943C250.383 87.4757 245.65 85.6132 242.106 82.5259L240.792 84.0341C244.687 87.4268 249.795 89.4043 254.84 90.2657L255.177 88.2943ZM242.106 82.5264C236.671 77.7854 233.05 70.4556 231.999 63.0986L230.019 63.3814C231.128 71.1444 234.946 78.9346 240.791 84.0336L242.106 82.5264ZM231.995 63.0756C230.698 55.2916 231.047 47.1231 232.238 39.1476L230.26 38.8524C229.05 46.9569 228.68 55.3484 230.022 63.4044L231.995 63.0756ZM232.24 39.1322C233.194 31.9766 234.735 24.9029 237.903 18.5672L236.114 17.6728C232.802 24.2971 231.223 31.6234 230.258 38.8678L232.24 39.1322ZM237.892 18.5892C239.88 14.8477 242.571 11.3372 245.728 8.41375L244.369 6.94623C241.047 10.0228 238.218 13.7123 236.126 17.6508L237.892 18.5892ZM245.733 8.40953C247.596 6.66285 249.633 5.20588 251.965 4.42868L251.333 2.53131C248.624 3.43411 246.342 5.09714 244.365 6.95046L245.733 8.40953ZM252.013 4.41124C253.27 3.91941 254.636 3.69072 256.104 3.51273C257.534 3.33944 259.117 3.21051 260.613 2.89898L260.205 0.941016C258.82 1.22948 257.404 1.34056 255.863 1.52726C254.362 1.70928 252.787 1.96059 251.284 2.54876L252.013 4.41124ZM260.59 2.90345C265.065 2.07906 269.63 2.08236 274.261 1.83861L274.156 -0.158622C269.668 0.0776224 264.872 0.08093 260.228 0.936544L260.59 2.90345ZM274.275 1.83778C281.441 1.36007 288.889 1.6204 294.995 4.73103L295.903 2.94895C289.289 -0.420415 281.377 -0.640076 274.142 -0.157789L274.275 1.83778ZM294.975 4.72046C296.383 5.47904 297.708 6.68702 298.707 8.12921L300.351 6.99079C299.189 5.31297 297.634 3.88096 295.923 2.95952L294.975 4.72046ZM298.681 8.08999C299.771 9.83474 300.336 11.94 300.45 14.2099L302.448 14.1101C302.321 11.58 301.686 9.12526 300.377 7.03L298.681 8.08999ZM300.451 14.2265C300.906 21.0593 296.364 27.4271 289.945 27.3201L289.912 29.3199C297.894 29.4529 302.951 21.6607 302.447 14.0935L300.451 14.2265ZM289.929 27.32C288.031 27.32 285.98 26.8709 284.107 26.2855L283.51 28.1945C285.477 28.8091 287.746 29.32 289.929 29.32V27.32ZM284.059 26.2717C280.417 25.3318 276.578 24.0983 272.653 23.6077L272.405 25.5923C276.16 26.0617 279.761 27.2282 283.559 28.2083L284.059 26.2717ZM272.605 23.6029C269.4 23.3563 265.615 23.7016 262.803 25.8446L264.015 27.4354C266.242 25.7384 269.418 25.3637 272.452 25.5971L272.605 23.6029ZM262.795 25.8506C261.515 26.8458 260.489 28.5596 260.489 30.36H262.489C262.489 29.2804 263.142 28.1142 264.023 27.4294L262.795 25.8506ZM260.494 30.4595C260.543 30.9521 260.727 31.3944 261.06 31.7425C261.381 32.0789 261.776 32.2604 262.141 32.3598C262.833 32.5487 263.632 32.4947 264.228 32.435L264.029 30.445C263.426 30.5053 262.964 30.5113 262.667 30.4302C262.603 30.4128 262.562 30.3949 262.537 30.3814C262.524 30.3748 262.517 30.3695 262.512 30.3662C262.508 30.363 262.506 30.3612 262.506 30.3612C262.506 30.3611 262.506 30.3612 262.507 30.3615C262.507 30.3618 262.507 30.362 262.507 30.3621C262.507 30.3625 262.506 30.361 262.504 30.3565C262.501 30.3481 262.49 30.3197 262.484 30.2605L260.494 30.4595ZM264.257 32.4318C266.182 32.1834 268.04 31.7181 269.824 31.287C271.627 30.8512 273.364 30.4477 275.145 30.2753L274.952 28.2846C273.014 28.4723 271.15 28.9088 269.354 29.343C267.538 29.7819 265.796 30.2166 264.001 30.4482L264.257 32.4318ZM275.153 30.2745C277.425 30.0354 279.634 29.9426 281.573 30.5887L282.205 28.6913C279.823 27.8974 277.233 28.0446 274.944 28.2855L275.153 30.2745ZM281.488 30.5562C283.231 31.3189 284.815 32.7201 285.533 34.3608L287.365 33.5592C286.403 31.3599 284.386 29.6411 282.29 28.7238L281.488 30.5562ZM285.523 34.3386C286.537 36.8166 286.88 39.5352 286.652 42.1534L288.645 42.3266C288.897 39.4248 288.521 36.3834 287.374 33.5814L285.523 34.3386ZM286.65 42.1946C286.535 44.7206 285.846 47.356 284.357 49.1643L285.901 50.4357C287.772 48.164 288.523 45.0394 288.648 42.2854L286.65 42.1946ZM284.329 49.2C283.364 50.4865 282.07 51.4629 280.535 52.1208L281.323 53.9591C283.147 53.1771 284.734 51.9935 285.929 50.4L284.329 49.2ZM280.557 52.1115C278.933 52.7614 277.177 52.8801 275.11 53.0017L275.227 54.9983C277.241 54.8799 279.325 54.7586 281.3 53.9685L280.557 52.1115ZM275.129 53.0008C274.439 53.0284 273.393 52.9728 272.108 52.8985C270.849 52.8258 269.397 52.738 267.97 52.7151C266.547 52.6923 265.104 52.7326 263.86 52.9277C262.661 53.1154 261.44 53.4749 260.662 54.2529L262.076 55.6671C262.378 55.3651 263.046 55.0796 264.169 54.9036C265.246 54.7349 266.555 54.6927 267.938 54.7149C269.315 54.737 270.721 54.8217 271.993 54.8952C273.239 54.9672 274.399 55.0316 275.209 54.9992L275.129 53.0008ZM260.681 54.234C259.919 54.956 259.554 55.8352 259.568 56.7599C259.582 57.6511 259.943 58.4899 260.449 59.2003C261.452 60.608 263.197 61.7619 264.984 62.1744L265.434 60.2256C264.101 59.9181 262.785 59.032 262.078 58.0397C261.729 57.5501 261.574 57.0989 261.568 56.7301C261.563 56.3948 261.679 56.044 262.056 55.686L260.681 54.234ZM265.02 62.182C268.391 62.8303 271.981 61.9188 275.034 61.2144L274.584 59.2656C271.396 60.0012 268.266 60.7696 265.398 60.218L265.02 62.182ZM275.015 61.2185C279.657 60.2412 284.228 59.1077 288.548 59.9035L288.91 57.9365C284.11 57.0523 279.08 58.3188 274.603 59.2614L275.015 61.2185ZM288.597 59.9112C291.966 60.3605 295.405 62.2768 297.137 64.8747L298.801 63.7653C296.693 60.6032 292.691 58.4394 288.861 57.9288L288.597 59.9112ZM297.13 64.865C298.516 66.9974 298.867 69.9526 298.312 72.5076L300.266 72.9324C300.911 69.9674 300.541 66.4426 298.807 63.775L297.13 64.865ZM298.309 72.5196C297.266 77.6176 294.487 82.7926 290.504 85.9791L291.753 87.5409C296.17 84.0074 299.151 78.3824 300.268 72.9204L298.309 72.5196ZM290.507 85.9765C287.307 88.5147 282.69 89.1207 278.262 89.2404L278.316 91.2396C282.768 91.1193 287.991 90.5253 291.75 87.5435L290.507 85.9765Z" fill="black"/>
</svg>
