<svg width="186" height="64" viewBox="0 0 186 64" fill="none" xmlns="http://www.w3.org/2000/svg">
<rect x="0.5" y="0.5" width="185" height="63" rx="16.5" stroke="white"/>
<path d="M53.0006 37.776C52.6266 38.507 51.8956 38.949 51.0966 38.949C50.5356 38.932 49.9576 38.626 49.5836 38.201C49.2266 37.776 49.0056 37.249 48.8526 36.739C48.6656 36.042 48.5806 35.311 48.5976 34.58C48.6316 33.373 48.8016 32.166 49.0056 30.976C48.6146 30.976 48.2066 30.942 47.8496 30.806C47.4416 30.653 47.0846 30.398 46.7956 30.092C46.1496 29.412 46.2516 28.12 46.8296 27.389C47.0846 27.066 47.4416 26.828 47.8156 26.692C48.0536 26.624 48.2916 26.59 48.5296 26.59C49.1416 26.556 49.7536 26.607 50.3656 26.607C50.5016 26.607 50.6376 26.59 50.7736 26.59C50.7906 26.59 50.8586 26.624 50.8756 26.624C51.5896 26.59 52.3036 26.539 53.0176 26.539C53.4766 26.556 53.9356 26.624 54.3266 26.828C55.1596 27.287 55.5846 28.256 55.3976 29.157C55.2786 29.701 54.8536 30.177 54.3946 30.449C54.0376 30.653 53.5956 30.755 53.1706 30.755C53.3066 32.421 53.5786 34.07 53.5106 35.736C53.4766 36.433 53.3236 37.147 53.0006 37.776ZM62.9909 39.034C61.8859 39.085 60.7809 39.085 59.6929 38.898C58.9959 38.779 58.2989 38.507 57.7719 38.048C56.9729 37.351 56.4459 36.28 56.2929 35.209C56.1059 34.087 56.1569 32.914 56.3269 31.775C56.4629 30.755 56.6839 29.735 57.1429 28.817C57.4319 28.273 57.8229 27.763 58.2819 27.338C58.5539 27.083 58.8599 26.862 59.2169 26.743C59.6079 26.59 60.0499 26.607 60.4579 26.522C61.1039 26.403 61.7669 26.403 62.4129 26.369C63.4329 26.301 64.5209 26.335 65.4219 26.794C65.6429 26.913 65.8469 27.1 65.9999 27.321C66.1699 27.593 66.2549 27.916 66.2719 28.256C66.3399 29.276 65.6599 30.279 64.6399 30.262C64.3509 30.262 64.0449 30.194 63.7729 30.109C63.2459 29.973 62.7189 29.803 62.1749 29.735C61.7329 29.701 61.2399 29.752 60.8829 30.024C60.7299 30.143 60.6109 30.347 60.6109 30.551C60.6279 30.721 60.8149 30.721 60.9849 30.704C61.5119 30.636 62.0049 30.449 62.5319 30.398C62.8549 30.364 63.1949 30.347 63.5009 30.449C63.7729 30.568 64.0279 30.789 64.1469 31.061C64.2999 31.435 64.3509 31.843 64.3169 32.234C64.2999 32.608 64.1979 33.016 63.9599 33.305C63.8069 33.509 63.6029 33.662 63.3649 33.764C63.1099 33.866 62.8379 33.883 62.5489 33.9C62.1239 33.917 60.8999 33.73 60.5939 34.036C60.2709 34.342 60.6959 34.818 61.1379 34.92C61.5799 35.005 62.0559 34.886 62.4979 34.784C63.1439 34.648 63.8239 34.478 64.4699 34.597C64.9799 34.665 65.5069 34.954 65.7789 35.362C65.9999 35.702 66.0509 36.161 65.9659 36.552C65.8129 37.3 65.4049 38.065 64.8099 38.541C64.3169 38.932 63.6199 39.017 62.9909 39.034ZM73.7751 38.966C73.1971 38.983 72.6021 39.034 72.0241 38.983C71.5821 38.932 71.1401 38.949 70.7151 38.881C70.2221 38.796 69.7291 38.609 69.3211 38.337C68.7091 37.929 68.2331 37.317 67.9611 36.637C67.5021 35.566 67.3661 34.359 67.3321 33.186C67.2981 32.2 67.3321 31.214 67.4511 30.228C67.5191 29.548 67.7061 28.834 68.0631 28.239C68.3691 27.712 68.8621 27.236 69.4231 26.998C69.8141 26.811 70.2901 26.743 70.7151 26.828C71.1061 26.896 71.4971 27.117 71.7691 27.406C72.1771 27.814 72.4491 28.392 72.5511 28.97C72.6701 29.616 72.5851 30.313 72.4661 30.959C72.2791 31.86 72.0071 32.744 71.8881 33.662C71.8371 33.951 71.8031 34.648 71.9731 34.869C72.1261 35.039 72.5171 34.971 72.7381 34.903C73.3841 34.699 74.0471 34.41 74.7101 34.427C75.2031 34.444 75.6281 34.631 75.9511 34.988C76.8181 35.991 76.7841 37.521 75.7131 38.303C75.1521 38.694 74.4551 38.949 73.7751 38.966ZM84.1745 39.034C83.0695 39.085 81.9645 39.085 80.8765 38.898C80.1795 38.779 79.4825 38.507 78.9555 38.048C78.1565 37.351 77.6295 36.28 77.4765 35.209C77.2895 34.087 77.3405 32.914 77.5105 31.775C77.6465 30.755 77.8675 29.735 78.3265 28.817C78.6155 28.273 79.0065 27.763 79.4655 27.338C79.7375 27.083 80.0435 26.862 80.4005 26.743C80.7915 26.59 81.2335 26.607 81.6415 26.522C82.2875 26.403 82.9505 26.403 83.5965 26.369C84.6165 26.301 85.7045 26.335 86.6055 26.794C86.8265 26.913 87.0305 27.1 87.1835 27.321C87.3535 27.593 87.4385 27.916 87.4555 28.256C87.5235 29.276 86.8435 30.279 85.8235 30.262C85.5345 30.262 85.2285 30.194 84.9565 30.109C84.4295 29.973 83.9025 29.803 83.3585 29.735C82.9165 29.701 82.4235 29.752 82.0665 30.024C81.9135 30.143 81.7945 30.347 81.7945 30.551C81.8115 30.721 81.9985 30.721 82.1685 30.704C82.6955 30.636 83.1885 30.449 83.7155 30.398C84.0385 30.364 84.3785 30.347 84.6845 30.449C84.9565 30.568 85.2115 30.789 85.3305 31.061C85.4835 31.435 85.5345 31.843 85.5005 32.234C85.4835 32.608 85.3815 33.016 85.1435 33.305C84.9905 33.509 84.7865 33.662 84.5485 33.764C84.2935 33.866 84.0215 33.883 83.7325 33.9C83.3075 33.917 82.0835 33.73 81.7775 34.036C81.4545 34.342 81.8795 34.818 82.3215 34.92C82.7635 35.005 83.2395 34.886 83.6815 34.784C84.3275 34.648 85.0075 34.478 85.6535 34.597C86.1635 34.665 86.6905 34.954 86.9625 35.362C87.1835 35.702 87.2345 36.161 87.1495 36.552C86.9965 37.3 86.5885 38.065 85.9935 38.541C85.5005 38.932 84.8035 39.017 84.1745 39.034ZM97.9337 39.051C97.1857 39.442 96.1657 39.238 95.6727 38.609C95.4857 38.388 95.3837 38.099 95.2987 37.827C95.0267 38.133 94.7037 38.422 94.3297 38.643C93.8707 38.898 93.3607 39.068 92.8337 39.102C92.3067 39.136 91.7627 39.017 91.2867 38.83C90.5557 38.524 89.8417 38.048 89.3657 37.419C88.8217 36.671 88.5327 35.736 88.4307 34.818C88.3117 33.815 88.4137 32.778 88.6007 31.792C88.7877 30.738 89.1617 29.701 89.7567 28.817C90.0967 28.324 90.5387 27.865 91.0317 27.525C91.6267 27.117 92.2727 26.743 92.9527 26.556C93.3607 26.437 93.7857 26.42 94.2107 26.403C94.9587 26.369 95.7407 26.454 96.4207 26.777C96.6927 26.896 96.9477 27.134 97.1007 27.389C97.3557 27.865 97.4407 28.46 97.3217 28.97C97.1007 30.075 96.0637 30.874 94.9927 30.534C94.8397 30.483 94.7207 30.381 94.6017 30.262C94.5167 30.228 94.0577 30.092 93.9387 30.092C93.7857 30.075 93.6157 30.126 93.4627 30.177C92.7827 30.381 92.2047 30.976 91.9497 31.639C91.6947 32.268 91.6267 33.016 91.7287 33.696C91.7797 34.07 91.9667 34.461 92.2387 34.733C92.6467 35.107 93.5477 35.362 94.0407 35.09C94.2617 34.971 94.4317 34.733 94.5167 34.478C94.5337 34.427 94.5677 34.359 94.5167 34.342C94.4317 34.308 94.0577 34.257 93.9727 34.24C93.6837 34.206 93.3607 34.155 93.1057 34.002C92.9187 33.9 92.7487 33.696 92.6637 33.492C92.5447 33.22 92.5277 32.914 92.5957 32.642C92.6637 32.336 92.8337 32.064 93.0547 31.843C93.4967 31.418 94.1597 31.197 94.7717 31.18C95.5027 31.163 96.1997 31.435 96.9137 31.503C97.3727 31.554 97.8997 31.588 98.2737 31.86C98.6817 32.166 98.9027 32.744 98.9367 33.254C98.9707 33.798 98.7667 34.325 98.6137 34.835C98.4607 35.362 98.3587 35.906 98.3417 36.45C98.3417 36.892 98.4267 37.317 98.4777 37.742C98.4947 38.014 98.5117 38.286 98.4097 38.541C98.3077 38.762 98.1547 38.932 97.9337 39.051ZM103.659 38.915C103.132 39.119 102.469 39.102 101.942 38.864C101.381 38.609 100.922 38.116 100.616 37.606C100.174 36.858 100.038 35.923 99.9874 35.056C99.9364 33.934 100.021 32.795 100.174 31.673C100.293 30.687 100.463 29.718 100.752 28.783C100.786 28.698 100.871 28.392 100.956 28.324C101.075 28.018 101.313 27.746 101.585 27.525C102.061 27.134 102.622 26.828 103.217 26.692C104.339 26.454 105.529 26.42 106.651 26.641C107.875 26.879 109.167 27.457 109.966 28.443C110.34 28.902 110.612 29.463 110.714 30.041C110.816 30.687 110.68 31.384 110.374 31.945C110.17 32.353 109.881 32.744 109.524 33.05C109.184 33.356 108.776 33.577 108.385 33.798C109.014 34.376 109.796 34.716 110.51 35.175C110.799 35.362 111.054 35.634 111.207 35.957C111.632 36.858 111.156 38.048 110.272 38.524C109.915 38.728 109.439 38.779 109.031 38.728C108.47 38.66 107.943 38.388 107.467 38.082C106.413 37.368 105.648 36.263 104.985 35.192C105.121 35.889 105.138 36.637 104.968 37.317C104.849 37.742 104.662 38.15 104.356 38.456C104.169 38.66 103.931 38.813 103.659 38.915ZM105.444 31.979C105.903 32.166 106.634 31.945 106.94 31.554C107.093 31.35 107.161 31.061 107.11 30.823C107.025 30.398 106.634 30.058 106.26 29.871C106.056 29.786 105.818 29.718 105.597 29.769C105.002 29.939 104.764 30.806 104.832 31.435C104.985 31.656 105.189 31.877 105.444 31.979ZM114.888 38.745C114.599 38.932 114.259 39.017 113.936 39.017C113.579 39.034 113.205 38.932 112.933 38.711C112.508 38.371 112.253 37.81 112.185 37.283C112.049 36.229 112.287 35.141 112.542 34.121C113.052 32.183 113.919 30.296 115.092 28.681C115.483 28.137 115.976 27.627 116.503 27.185C116.741 26.998 117.03 26.811 117.336 26.743C117.795 26.641 118.271 26.624 118.73 26.709C119.444 26.828 120.124 27.202 120.651 27.678C121.433 28.426 121.994 29.395 122.487 30.364C122.963 31.316 123.303 32.353 123.558 33.407C123.779 34.427 123.915 35.498 123.796 36.535C123.694 37.317 123.201 38.15 122.521 38.575C121.892 38.949 121.076 39.085 120.379 38.915C120.107 38.847 119.835 38.711 119.631 38.524C119.342 38.269 119.138 37.912 118.985 37.555C118.696 36.909 118.543 36.212 118.492 35.515C117.863 35.566 117.234 35.6 116.605 35.583C116.384 36.263 116.18 36.96 115.84 37.589C115.619 38.031 115.313 38.473 114.888 38.745ZM117.676 30.585C117.166 31.214 116.911 32.013 116.775 32.812C117.013 32.795 118.322 32.659 118.543 32.625C118.492 32.217 118.475 31.792 118.424 31.384C118.39 31.044 118.305 30.704 118.152 30.415C118.118 30.347 117.999 30.347 117.931 30.364C117.829 30.398 117.744 30.5 117.676 30.585ZM126.47 39.17C125.603 39.323 125.042 38.405 124.872 37.555C124.787 37.096 124.753 36.637 124.77 36.178C124.838 34.784 125.11 33.39 125.45 32.03C125.603 31.367 125.773 30.721 125.994 30.075C126.113 29.701 126.759 27.916 126.963 27.576C126.98 27.542 127.048 27.525 127.065 27.491C127.218 27.287 127.388 27.083 127.592 26.93C127.966 26.658 128.442 26.488 128.901 26.471C128.969 26.471 129.19 26.437 129.241 26.471C129.275 26.505 129.479 26.522 129.53 26.539C129.7 26.59 129.87 26.709 130.006 26.828C130.227 27.066 130.38 27.372 130.533 27.678C130.89 28.426 131.145 29.208 131.366 30.007C131.604 30.806 131.808 31.605 132.012 32.404C132.046 32.319 132.267 31.792 132.318 31.707C132.845 30.466 133.44 29.259 134.154 28.12C134.647 27.338 135.752 26.505 136.619 26.828C137.894 27.27 138.387 30.092 138.625 31.418C138.676 31.724 139.016 33.594 139.067 33.9C139.237 34.886 139.356 35.889 139.254 36.875C139.203 37.504 138.999 38.201 138.54 38.66C138.234 38.949 137.69 39.102 137.282 38.966C136.874 38.813 136.534 38.439 136.33 38.048C135.667 36.824 135.327 35.413 134.97 34.053C134.732 34.631 134.477 35.192 134.205 35.753C133.882 36.416 133.525 37.062 133.032 37.606C132.811 37.827 132.539 38.014 132.233 38.082C132.012 38.133 131.774 38.099 131.553 38.014C131.247 37.861 130.958 37.606 130.754 37.317C130.108 36.399 129.751 35.294 129.377 34.223C129.088 35.175 128.799 36.144 128.425 37.062C128.119 37.793 127.626 38.49 126.98 38.932C126.827 39.051 126.657 39.136 126.47 39.17Z" fill="white"/>
</svg>
