<svg width="1138" height="641" viewBox="0 0 1138 641" fill="none" xmlns="http://www.w3.org/2000/svg">
<mask id="path-1-inside-1_6_97" fill="white">
<path fill-rule="evenodd" clip-rule="evenodd" d="M85 0C38.0558 0 0 38.0558 0 85V556C0 602.944 38.0558 641 85 641H465H496H1053C1099.94 641 1138 602.944 1138 556V481C1138 434.056 1099.94 396 1053 396H689C629.353 396 581 347.647 581 288V85C581 38.0558 542.944 0 496 0H85Z"/>
</mask>
<path d="M2 85C2 39.1604 39.1604 2 85 2V-2C36.9512 -2 -2 36.9512 -2 85H2ZM2 556V85H-2V556H2ZM85 639C39.1604 639 2 601.84 2 556H-2C-2 604.049 36.9512 643 85 643V639ZM465 639H85V643H465V639ZM496 639H465V643H496V639ZM1053 639H496V643H1053V639ZM1136 556C1136 601.84 1098.84 639 1053 639V643C1101.05 643 1140 604.049 1140 556H1136ZM1136 481V556H1140V481H1136ZM1053 398C1098.84 398 1136 435.16 1136 481H1140C1140 432.951 1101.05 394 1053 394V398ZM689 398H1053V394H689V398ZM579 85V288H583V85H579ZM496 2C541.84 2 579 39.1604 579 85H583C583 36.9512 544.049 -2 496 -2V2ZM85 2H496V-2H85V2ZM689 394C630.458 394 583 346.542 583 288H579C579 348.751 628.249 398 689 398V394Z" fill="white" mask="url(#path-1-inside-1_6_97)"/>
</svg>
